<svg version="1.1" id="Layer_1" xmlns="http://www.w3.org/2000/svg" xmlns:xlink="http://www.w3.org/1999/xlink" x="0px" y="0px"
	 width="100%" viewBox="0 0 512 512" enable-background="new 0 0 512 512" xml:space="preserve">
<path fill="#FFFFFF" opacity="1.000000" stroke="none" 
	d="
M513.000000,189.000000 
	C513.000000,297.307007 513.000000,405.114014 513.000000,512.960510 
	C342.401306,512.960510 171.802628,512.960510 1.101965,512.960510 
	C1.101965,342.443024 1.101965,171.885956 1.101965,1.164450 
	C171.666534,1.164450 342.333252,1.164450 513.000000,1.164450 
	C513.000000,63.530674 513.000000,126.015335 513.000000,189.000000 
M146.543457,59.344440 
	C146.382874,59.924019 146.222290,60.503593 146.001434,61.016918 
	C146.001434,61.016918 146.084152,61.051228 145.335052,61.149342 
	C143.539597,62.879990 141.744156,64.610641 139.245316,67.019279 
	C138.834030,68.321938 138.078598,70.714584 137.202103,73.490646 
	C138.484451,73.159760 139.523010,72.891785 140.130219,72.735107 
	C140.130219,77.628410 139.892075,82.194328 140.191284,86.724739 
	C140.554596,92.225197 141.624268,97.683090 141.898819,103.183823 
	C142.069168,106.596909 141.535278,110.091011 140.942780,113.483315 
	C140.358337,116.829529 139.301910,120.093300 138.452560,123.393242 
	C137.892868,123.620712 137.333191,123.848175 136.773514,124.075645 
	C139.243073,125.694008 141.712616,127.312363 145.093521,128.847168 
	C168.578873,128.841614 192.064270,128.807709 215.549561,128.841400 
	C229.033539,128.860733 242.517334,128.989685 255.998917,129.994476 
	C255.999222,132.489700 256.001434,134.984924 255.999496,137.480148 
	C255.994385,143.984055 255.993652,143.989182 249.571762,143.989395 
	C204.325058,143.990982 159.078217,144.038452 113.831795,143.925262 
	C108.574860,143.912109 103.326874,142.844849 98.059738,142.623703 
	C96.731453,142.567917 95.345215,143.892212 93.319824,144.780579 
	C92.861702,144.744385 92.403580,144.708206 91.527802,144.293076 
	C90.694267,144.465866 89.860725,144.638641 88.304260,145.044601 
	C87.549179,145.068054 86.794098,145.091522 85.628677,144.553070 
	C84.419128,145.001129 83.209572,145.449203 81.591507,146.115509 
	C81.591507,146.115509 81.132561,146.053207 80.236900,146.009491 
	C77.328667,146.433212 74.426880,146.910828 71.509712,147.259872 
	C69.828682,147.460999 67.992798,147.089645 66.461716,147.635452 
	C64.641434,148.284363 61.813709,149.468903 61.642124,150.724655 
	C61.200500,153.956680 59.498230,154.253571 57.287502,153.553833 
	C52.439602,152.019394 51.739326,154.329590 52.355961,157.435577 
	C50.824139,158.397598 48.754261,159.016876 48.649921,159.875122 
	C48.039761,164.893921 39.558628,164.333847 41.066933,170.741135 
	C41.110348,170.925568 39.370316,171.913773 38.501511,171.861969 
	C34.911690,171.647964 34.251549,174.288330 34.170593,176.688049 
	C34.071964,179.611618 34.796787,182.562958 35.216858,185.816315 
	C35.216858,185.816315 34.956131,185.998718 34.267269,186.075211 
	C33.876038,187.393036 33.484810,188.710861 33.079540,190.684845 
	C32.706921,191.451202 32.334305,192.217545 31.301407,192.693527 
	C29.219484,192.884460 27.137562,193.075394 24.139940,193.350296 
	C25.922007,195.624344 26.858501,196.819382 27.608795,197.776810 
	C25.945097,198.628143 23.410557,199.288818 23.369701,200.078491 
	C23.284731,201.720779 24.462322,203.458908 25.234201,205.104538 
	C25.771084,206.249191 26.496546,207.305359 27.225838,208.746719 
	C27.225838,208.746719 26.973692,208.999039 26.307117,209.099792 
	C24.629416,209.778870 22.951712,210.457932 20.618626,211.402283 
	C21.724375,212.859024 22.775215,214.243423 23.264671,214.888245 
	C22.385498,218.039581 21.667706,220.612473 20.834517,223.598984 
	C20.469477,223.598984 19.437681,223.598984 17.806742,223.598984 
	C18.900270,229.216476 20.076736,234.437668 20.868729,239.716537 
	C21.204981,241.957779 20.520254,244.334717 20.677361,246.624054 
	C20.984154,251.094620 21.556736,255.546936 22.239601,260.657104 
	C22.175344,261.104187 22.111088,261.551270 21.250656,262.168915 
	C20.842041,262.825989 20.097012,263.471863 20.074697,264.141785 
	C19.666197,276.405365 18.912397,288.684204 19.264879,300.930115 
	C19.371920,304.648865 22.585182,308.277863 24.374495,311.948578 
	C25.191969,313.625671 26.641989,315.283081 26.698606,316.986206 
	C26.846636,321.439117 33.082066,333.433197 37.000854,335.998779 
	C37.000854,335.998779 37.061672,335.933716 37.003620,336.697968 
	C36.389641,337.790131 35.660679,338.834778 35.185959,339.984436 
	C34.238743,342.278412 33.431053,344.630035 32.565739,346.957825 
	C33.105980,347.154938 33.646217,347.352051 34.186459,347.549133 
	C34.714523,346.498779 35.242592,345.448395 35.554974,344.827026 
	C38.003578,344.827026 40.118767,344.827026 42.104656,344.927948 
	C42.104656,344.927948 42.183178,344.783936 42.072701,345.608002 
	C41.766384,347.984070 42.535244,349.328339 45.071621,348.945312 
	C45.071621,348.945312 45.147251,348.817200 45.059517,349.553131 
	C46.040073,351.368286 47.020630,353.183441 47.905113,355.792633 
	C47.905113,360.431885 47.905113,365.071136 47.905113,369.916382 
	C49.795368,369.809570 50.624832,369.868744 51.405956,369.701782 
	C57.799141,368.335388 62.666115,370.869110 65.577774,376.763306 
	C66.373146,378.373383 67.836929,380.557068 69.254799,380.774170 
	C72.554382,381.279449 75.949745,380.609650 76.693733,385.368164 
	C76.807014,386.092651 79.275299,387.015533 80.565582,386.895203 
	C87.610199,386.238068 95.302727,389.474518 101.549202,383.459564 
	C102.294159,382.742218 104.106041,383.170868 105.412285,382.988770 
	C107.025162,382.763885 108.679337,382.627045 110.222549,382.150604 
	C114.435455,380.849976 118.490768,379.024139 121.986183,383.927399 
	C122.562378,384.735687 125.699059,383.995880 127.525681,383.502380 
	C128.281799,383.298126 128.704315,381.859039 129.541138,380.580322 
	C130.223953,381.602356 130.861496,382.111267 130.854156,382.610718 
	C130.671234,395.056641 130.506012,407.504059 130.142593,419.945526 
	C129.978439,425.565186 129.222122,431.167419 129.055374,436.787109 
	C128.908463,441.738983 130.528320,442.743011 135.232422,441.923340 
	C136.983124,441.618286 138.921127,442.387970 140.790833,442.670166 
	C139.168121,445.059875 138.120209,446.603119 137.072281,448.146332 
	C138.865723,448.553192 140.739471,448.761444 142.422318,449.441833 
	C143.423447,449.846619 144.798813,450.977661 144.819031,451.810974 
	C144.860397,453.516388 144.278809,455.311005 143.636230,456.943939 
	C142.163437,460.686554 143.401108,464.296906 147.305588,465.070648 
	C150.410660,465.685974 153.759811,465.069580 157.618607,465.264954 
	C158.475830,465.452240 159.333054,465.639526 160.045059,466.001556 
	C160.045059,466.001556 160.167358,465.810272 160.113068,466.535797 
	C161.699814,468.310364 163.286545,470.084961 164.954163,471.949982 
	C163.941666,473.427063 163.051575,474.725616 162.161469,476.024139 
	C162.386871,476.425964 162.612259,476.827759 162.837662,477.229553 
	C165.043549,476.381775 167.249451,475.533966 169.704361,474.590485 
	C169.704361,476.021667 169.704361,477.369049 169.704361,478.799164 
	C177.459274,477.144562 183.632034,479.381439 188.570969,485.087219 
	C190.605042,487.437134 192.628387,488.120941 195.978012,487.402832 
	C199.167221,486.719116 203.717819,486.662140 205.945251,488.462860 
	C209.996796,491.738281 213.478210,492.593475 216.378769,490.840210 
	C219.701782,491.827759 221.679092,492.939148 223.642746,492.915466 
	C238.432388,492.737152 253.218842,492.309784 268.007416,492.018372 
	C272.838043,491.923187 277.693146,492.264282 282.495148,491.880951 
	C284.715515,491.703705 286.835358,490.266693 289.825806,489.140320 
	C291.556305,489.104553 293.286835,489.068787 295.548706,489.591583 
	C297.512115,489.824127 299.558685,489.783875 301.420105,490.351166 
	C304.456726,491.276581 304.908844,489.621307 305.822235,487.093597 
	C307.212067,487.054291 308.601898,487.014954 310.455902,487.529236 
	C312.900269,488.292969 315.176544,488.632935 316.726074,485.071808 
	C317.483948,485.045959 318.241821,485.020111 319.449463,485.511566 
	C324.836975,484.295441 330.245850,483.160828 335.584747,481.759430 
	C336.247681,481.585449 336.538910,479.995300 337.506653,478.841003 
	C337.870331,478.818939 338.233978,478.796875 339.373108,479.131805 
	C343.704224,481.438995 346.914307,479.151825 349.959015,476.466522 
	C352.754364,474.001190 355.625275,471.582764 358.127045,468.837585 
	C359.689514,467.123108 360.629547,464.841431 361.946838,462.959167 
	C361.946838,462.959167 361.811493,462.848328 362.540375,462.898468 
	C364.587646,462.898468 366.634918,462.898468 369.366608,462.898468 
	C366.825439,459.521484 366.500397,456.143494 369.744995,453.054596 
	C369.958801,452.850983 369.285187,451.715210 369.001770,450.318817 
	C369.143646,449.881683 369.285522,449.444580 369.919464,448.903839 
	C369.989838,448.288239 370.060211,447.672668 370.037964,446.358276 
	C370.150482,445.905518 370.263000,445.452728 370.991058,444.832123 
	C372.037659,443.624298 373.398163,442.566284 374.061707,441.175690 
	C375.236084,438.714478 376.809692,436.032471 376.751953,433.475922 
	C376.609406,427.157928 375.522156,420.867432 375.043549,414.548523 
	C374.756470,410.758362 376.361420,405.880493 374.537018,403.353210 
	C371.034790,398.501617 372.629730,393.608521 371.923431,388.755676 
	C371.732849,387.445923 370.588135,386.275085 368.959900,385.090820 
	C335.052551,385.083221 301.145233,385.075073 267.237885,385.068390 
	C256.337646,385.066254 256.337646,385.068054 258.033630,374.003967 
	C310.976898,374.002258 363.920166,374.001038 416.863434,373.996307 
	C418.361115,373.996155 420.201202,374.500305 421.279999,373.818085 
	C423.109100,372.661285 424.457825,370.744965 426.668152,368.991577 
	C427.117920,369.005951 427.567719,369.020325 428.531860,369.588867 
	C430.113373,369.523987 431.769775,369.738525 433.261414,369.338501 
	C436.833191,368.380707 440.422424,367.355957 443.811707,365.907013 
	C445.435211,365.213013 446.620850,363.494873 448.424683,362.015717 
	C448.424683,362.015717 448.893860,361.933624 449.605347,362.255981 
	C451.361053,362.082306 453.393707,362.401154 454.801880,361.609375 
	C456.534851,360.635040 457.761139,358.747803 459.181519,357.231812 
	C462.182526,354.028809 465.160797,350.804504 468.174133,347.613251 
	C468.364563,347.411652 468.776703,347.419342 469.244598,347.283569 
	C470.250519,348.079895 471.320404,348.926880 472.390289,349.773834 
	C472.811707,349.546082 473.233124,349.318329 473.654541,349.090546 
	C472.879761,347.326965 472.104980,345.563385 471.605530,344.426483 
	C472.808350,341.549744 473.833344,339.098389 474.842896,336.073547 
	C474.971985,335.716309 475.101074,335.359039 475.865509,334.869293 
	C476.201324,334.139404 476.537140,333.409485 476.848022,332.320404 
	C476.848022,332.320404 477.010040,331.998840 477.766937,331.983093 
	C480.456451,329.965851 482.400238,327.650726 480.931915,323.300842 
	C481.316559,322.542694 481.701202,321.784546 482.771515,320.886932 
	C484.862793,316.417847 486.954041,311.948730 489.081238,307.402893 
	C490.105988,307.797791 491.236176,308.233307 492.732574,308.809967 
	C492.841766,307.254395 492.920868,306.127197 493.792358,304.819855 
	C496.180908,300.093231 494.806915,295.402374 494.583527,290.700562 
	C494.055695,290.699188 493.527832,290.697815 493.000000,290.696442 
	C493.000000,295.464294 493.000000,300.232147 492.266571,304.910767 
	C491.535400,303.356293 490.702576,301.839722 490.104218,300.235687 
	C489.597656,298.877655 489.362457,297.418396 488.932892,295.172943 
	C489.359589,292.783600 489.786316,290.394257 490.883972,287.903809 
	C491.404266,286.892334 492.078857,285.927612 492.403107,284.856812 
	C492.753723,283.698730 492.674622,282.416443 492.965179,281.233093 
	C493.538940,278.896332 495.447540,275.998993 494.657349,274.383575 
	C492.360931,269.688690 493.999725,265.807831 495.609131,261.683655 
	C497.312744,257.318207 497.628448,253.294418 494.849030,248.894333 
	C493.531769,246.809006 494.245758,243.375854 494.229706,240.552261 
	C494.214996,237.960754 494.846527,235.311188 494.481323,232.790375 
	C494.060425,229.885223 492.605042,227.142227 492.044525,224.242676 
	C490.489410,216.198135 489.145660,208.112274 487.764069,200.034943 
	C487.400208,197.907715 487.680542,195.533997 486.824951,193.656311 
	C485.177643,190.041260 483.019623,186.643921 480.907471,183.259842 
	C478.728729,179.769012 476.352570,176.401413 473.518097,172.708954 
	C473.326080,172.148575 473.134094,171.588196 473.505188,170.587860 
	C474.173431,169.720291 475.099091,168.944412 475.448578,167.963318 
	C475.951996,166.550110 476.036682,164.987747 476.199677,164.060226 
	C472.909424,164.491440 470.962280,164.746628 468.838409,164.719681 
	C468.838409,164.719681 468.851227,164.387024 468.904053,163.624680 
	C467.935638,161.750229 466.967224,159.875778 465.999725,157.120590 
	C465.577820,154.225861 465.370148,151.279327 464.685699,148.448074 
	C463.551880,143.757965 461.208496,141.618179 456.094971,144.305969 
	C453.064819,145.898697 450.229767,143.777908 450.045685,140.267456 
	C449.943024,138.309875 450.383972,136.324463 450.290497,134.365402 
	C450.251984,133.558243 449.453125,132.787369 448.537445,131.454788 
	C447.358307,131.303391 446.179138,131.151993 444.895386,130.323135 
	C443.254333,130.191559 441.613251,130.059982 440.930542,130.005249 
	C437.936798,128.946213 435.064819,126.837540 433.514252,127.561005 
	C424.204895,131.904541 414.492126,129.236877 405.011139,129.962128 
	C401.514954,130.229568 397.990479,130.267166 394.523773,130.738998 
	C391.335144,131.173004 386.048950,127.917679 386.081055,124.730690 
	C386.229706,109.989243 386.663269,95.250816 386.861145,80.509521 
	C386.888580,78.467041 386.871368,75.632561 385.646912,74.536438 
	C383.394348,72.519997 383.080872,70.855743 383.822327,68.132111 
	C384.156952,66.902878 383.362457,64.508728 382.374146,63.990952 
	C381.098785,63.322803 379.077271,63.826958 377.453583,64.179085 
	C376.606079,64.362885 375.922546,65.302750 374.746918,66.231308 
	C372.730072,64.045288 370.863831,62.022472 368.998627,59.500889 
	C368.998627,59.500889 368.998779,59.002121 369.079224,58.259052 
	C372.618439,49.891258 371.452576,48.248932 362.419403,46.758484 
	C359.616425,44.128643 357.707458,42.665001 356.240234,40.845192 
	C355.271667,39.643925 354.397583,37.921047 354.423706,36.448414 
	C354.496338,32.348114 352.641876,30.657520 349.114105,32.728474 
	C346.426880,34.305992 344.725586,33.698040 342.357086,32.319096 
	C339.289185,30.532984 335.874298,29.548891 332.208923,32.999668 
	C330.455688,32.272903 328.692383,31.569252 326.952545,30.811714 
	C325.668396,30.252592 324.347443,28.999081 323.158783,29.127531 
	C316.084381,29.892000 311.665192,25.727076 306.920013,20.982431 
	C307.165253,26.007145 303.542114,25.195440 300.616211,24.938648 
	C296.369507,24.565941 292.125366,23.943928 287.945526,23.103174 
	C284.890656,22.488707 281.941071,21.350887 278.201904,20.222183 
	C278.055084,20.675550 277.523285,22.317713 276.200134,24.113796 
	C275.135925,24.008022 274.071716,23.902248 272.892975,23.048128 
	C272.049561,21.728420 271.054108,19.192654 270.386139,19.276171 
	C263.317230,20.159960 255.669235,16.067282 249.106796,21.592197 
	C248.612442,22.008371 247.526230,21.718876 246.715408,21.762209 
	C240.193253,22.110779 233.663879,22.363234 227.152222,22.851988 
	C224.018280,23.087221 220.829361,23.924593 221.136871,18.837864 
	C217.388535,19.036545 213.685013,18.311256 210.878311,19.576077 
	C205.269318,22.103718 200.151840,25.722078 195.116440,28.720324 
	C191.656754,25.237598 189.105270,22.231178 185.097595,24.078016 
	C180.908890,26.008282 184.218628,29.276957 184.259369,31.960358 
	C184.261795,32.120708 184.347351,32.279797 184.318893,32.425827 
	C184.318893,32.425827 184.273895,32.363934 183.557968,32.134346 
	C178.040070,31.767298 173.076141,36.733967 167.294083,33.823532 
	C163.269867,37.421135 159.245651,41.018738 156.139648,43.795475 
	C153.171432,44.439526 150.348831,44.241318 149.491333,45.444107 
	C148.429306,46.933773 148.860229,49.589222 148.925919,51.732479 
	C148.952957,52.614471 149.708847,53.474129 150.073349,54.761322 
	C150.073349,54.761322 149.748962,55.030697 149.400757,55.243233 
	C149.189713,55.429462 149.050903,55.659313 149.007523,55.988003 
	C149.007523,55.988003 148.947815,55.983162 148.312241,55.991077 
	C147.892136,57.018917 147.472015,58.046757 147.003540,59.018417 
	C147.003540,59.018417 147.077133,59.027420 146.543457,59.344440 
M491.162933,193.168839 
	C491.972198,194.401047 492.781464,195.633240 493.978485,197.455841 
	C496.050720,189.349350 493.977661,183.914795 487.600067,181.942123 
	C488.873138,185.888809 489.927673,189.158112 491.162933,193.168839 
M325.629395,487.000061 
	C324.204437,487.169556 322.779510,487.339050 320.330353,487.630402 
	C325.413818,490.969452 328.663391,490.696991 331.752686,487.000000 
	C329.693024,487.000000 328.088287,487.000000 325.629395,487.000061 
M322.619873,22.513926 
	C321.975128,22.043022 321.256195,21.103458 320.699982,21.191551 
	C319.199249,21.429239 317.744446,22.054024 316.350525,22.696712 
	C316.231201,22.751724 316.623383,24.681162 316.907074,24.716976 
	C318.398285,24.905243 319.947479,24.880674 321.439850,24.670097 
	C321.914398,24.603138 322.276245,23.737236 322.619873,22.513926 
M298.872406,494.995422 
	C300.736572,494.822998 302.600769,494.650543 304.464935,494.478119 
	C304.422028,494.022583 304.379120,493.567078 304.336212,493.111542 
	C302.091797,493.111542 299.847412,493.111542 297.602997,493.111542 
	C297.757538,493.731537 297.912109,494.351562 298.872406,494.995422 
M25.081551,329.379913 
	C25.990618,329.158783 26.899683,328.937622 27.808752,328.716492 
	C27.049911,327.499847 26.291071,326.283173 25.532232,325.066528 
	C25.098415,325.204712 24.664600,325.342896 24.230783,325.481079 
	C24.343750,326.605133 24.456715,327.729187 25.081551,329.379913 
M494.956421,210.906830 
	C494.453674,210.563705 493.950897,210.220596 493.448151,209.877487 
	C493.448151,211.402023 493.448151,212.926544 493.448151,214.451080 
	C493.829285,214.440094 494.210449,214.429108 494.591583,214.418121 
	C494.724213,213.490448 494.856873,212.562775 494.956421,210.906830 
M379.073822,445.646698 
	C379.419952,446.234528 379.766083,446.822357 380.112213,447.410187 
	C380.380096,446.904907 380.991913,446.131897 380.848145,445.947174 
	C380.489899,445.487152 379.787811,445.294861 379.073822,445.646698 
M480.755280,341.022339 
	C480.601471,340.178223 480.447693,339.334137 480.293915,338.490021 
	C479.831024,338.664917 479.368103,338.839783 478.905212,339.014679 
	C479.374695,339.840729 479.844177,340.666779 480.755280,341.022339 
M458.042786,365.225281 
	C458.344574,365.786530 458.646362,366.347778 458.948151,366.909027 
	C459.448456,366.637848 459.948730,366.366669 460.449036,366.095520 
	C459.863251,365.753998 459.277466,365.412506 458.042786,365.225281 
M193.521957,492.304901 
	C194.487564,492.407776 195.453156,492.510620 196.418762,492.613464 
	C196.406693,492.148743 196.394623,491.684021 196.382553,491.219299 
	C195.431503,491.361328 194.480469,491.503387 193.521957,492.304901 
M333.556976,493.639618 
	C334.441498,494.026581 335.326050,494.413574 336.210571,494.800537 
	C336.306519,494.380951 336.402466,493.961365 336.498444,493.541779 
	C335.678986,493.432404 334.859558,493.322998 333.556976,493.639618 
M380.724915,435.119232 
	C380.532532,434.575073 380.340179,434.030945 380.147797,433.486816 
	C379.868896,433.614380 379.590027,433.741974 379.311127,433.869537 
	C379.637268,434.429626 379.963409,434.989716 380.724915,435.119232 
M196.097733,21.732109 
	C196.042740,21.232462 195.987732,20.732815 195.932724,20.233168 
	C195.485245,20.348070 195.037766,20.462973 194.590286,20.577881 
	C194.893143,21.004431 195.195999,21.430983 196.097733,21.732109 
M135.609146,78.797600 
	C135.214432,78.793396 134.819702,78.789192 134.424988,78.784988 
	C134.423462,78.948792 134.410980,79.254959 134.422012,79.255806 
	C134.814789,79.286087 135.209778,79.287788 135.609146,78.797600 
M154.568649,34.296593 
	C154.295807,34.010757 154.022949,33.724918 153.750107,33.439079 
	C153.631790,33.552204 153.404404,33.757477 153.410904,33.765171 
	C153.665558,34.066643 153.941513,34.350124 154.568649,34.296593 
M153.517380,42.410717 
	C153.517380,42.410717 153.584854,42.523247 153.517380,42.410717 
z"/>
<path fill="#01599D" opacity="1.000000" stroke="none" 
	d="
M91.945457,144.672012 
	C92.403580,144.708206 92.861702,144.744385 94.112244,144.784027 
	C148.896255,144.787460 202.887833,144.787460 257.425751,144.787460 
	C257.425751,141.380676 257.597351,138.239227 257.364899,135.127960 
	C257.212311,133.085831 256.476074,131.087326 256.001221,129.069275 
	C242.517334,128.989685 229.033539,128.860733 215.549561,128.841400 
	C192.064270,128.807709 168.578873,128.841614 144.522400,128.436493 
	C143.862579,112.073029 143.541107,96.116463 143.799744,80.169304 
	C143.903275,73.785942 145.284500,67.423302 146.084152,61.051228 
	C146.084152,61.051228 146.001434,61.016918 146.285019,60.881866 
	C146.738113,60.173683 146.907623,59.600552 147.077133,59.027420 
	C147.077133,59.027420 147.003540,59.018417 147.290192,58.878227 
	C148.033829,57.819748 148.490829,56.901455 148.947815,55.983162 
	C148.947815,55.983162 149.007523,55.988003 149.216095,55.905399 
	C149.720322,55.635574 149.828415,55.371544 149.748962,55.030697 
	C149.748962,55.030697 150.073349,54.761322 150.405334,54.387177 
	C154.432434,50.518028 157.675964,46.281372 161.924133,43.694607 
	C169.036697,39.363682 176.790161,36.085297 184.273895,32.363934 
	C184.273895,32.363934 184.318893,32.425827 184.731659,32.372818 
	C199.161133,29.800446 213.089844,26.353405 227.218399,25.013697 
	C242.383545,23.575701 257.736511,24.118221 273.007507,23.796476 
	C274.071716,23.902248 275.135925,24.008022 276.989868,24.167385 
	C300.764282,26.086245 323.209869,30.034885 343.854492,41.231255 
	C343.945404,41.167683 343.737030,41.243874 343.917908,41.528156 
	C347.073395,43.829655 350.047974,45.846874 353.113617,48.145496 
	C353.546722,48.598225 353.888794,48.769550 354.354828,49.240757 
	C361.147491,55.459026 365.546265,62.893818 368.843445,71.392776 
	C368.968201,72.150337 369.103088,72.572899 369.227173,73.411827 
	C369.522064,79.121208 370.118927,84.416000 370.086792,89.706970 
	C369.857452,127.472420 369.499847,165.237091 369.057373,203.316864 
	C368.927704,204.079178 368.923676,204.526642 368.692169,205.241348 
	C368.290344,206.665421 368.115997,207.822266 367.674622,209.179657 
	C367.258636,210.249939 367.109650,211.119659 366.740234,212.175659 
	C366.396545,212.909180 366.273285,213.456467 366.017120,214.174377 
	C365.884247,214.345001 365.911987,214.776672 365.640198,215.003052 
	C359.997070,228.086578 350.809906,237.476990 338.092712,242.722595 
	C330.088409,246.024216 321.383514,247.627213 312.617188,249.925415 
	C311.489960,249.951843 310.738403,250.045105 309.524139,250.064545 
	C270.452393,250.004883 231.843292,249.980377 193.234406,250.057831 
	C182.345551,250.079681 171.718277,251.573181 161.695953,256.980194 
	C160.925415,257.298615 160.451935,257.621521 159.628479,257.973877 
	C139.166428,269.934784 130.699310,288.501526 128.981567,311.346558 
	C128.904861,312.477325 128.940125,313.239380 128.860626,314.327881 
	C128.818100,315.103485 128.890320,315.552643 128.849335,316.407959 
	C128.811203,318.208527 128.886307,319.602905 128.844818,321.364380 
	C128.807968,322.488770 128.887695,323.246094 128.854736,324.460510 
	C128.811493,339.909180 128.880951,354.900787 128.818665,370.017303 
	C128.777267,370.464508 128.867599,370.786774 128.868729,371.247070 
	C128.779526,371.385101 128.885834,371.696106 128.447601,371.856995 
	C109.686401,371.652618 91.246498,374.272797 73.057655,369.915833 
	C73.033470,369.965332 73.126984,369.907013 72.915886,369.621124 
	C61.334976,365.429138 52.812988,357.698181 45.147251,348.817200 
	C45.147251,348.817200 45.071621,348.945312 45.054863,348.588135 
	C44.086464,347.081940 43.134819,345.932953 42.183174,344.783936 
	C42.183178,344.783936 42.104656,344.927948 42.110397,344.533508 
	C40.431320,341.403961 38.746498,338.668854 37.061676,335.933716 
	C37.061672,335.933716 37.000854,335.998779 37.018082,335.605530 
	C33.607761,324.829468 29.090805,314.658203 27.023993,304.011261 
	C24.343922,290.205170 23.615440,276.020203 22.046831,261.998352 
	C22.111088,261.551270 22.175344,261.104187 22.241825,259.883728 
	C23.820599,242.406555 25.397146,225.702805 26.973694,208.999039 
	C26.973692,208.999039 27.225838,208.746719 27.421261,208.265900 
	C29.065018,202.851364 30.513353,197.917633 31.961689,192.983902 
	C32.334305,192.217545 32.706921,191.451202 33.345032,190.159485 
	C34.059055,188.422318 34.507591,187.210526 34.956131,185.998718 
	C34.956131,185.998718 35.216858,185.816315 35.470005,185.427551 
	C45.226105,165.481827 60.089676,152.168762 81.132561,146.053207 
	C81.132561,146.053207 81.591507,146.115509 82.145592,146.071991 
	C83.812790,145.723969 84.925903,145.419479 86.039017,145.114990 
	C86.794098,145.091522 87.549179,145.068054 89.030655,144.993896 
	C90.486519,144.852814 91.215988,144.762421 91.945457,144.672012 
M198.781494,60.503597 
	C186.363434,57.983242 176.012222,63.455772 173.019058,74.123825 
	C169.984161,84.940544 175.645844,95.861137 186.090103,99.336075 
	C196.565552,102.821388 208.014786,97.395699 211.760605,87.171082 
	C215.728561,76.340118 210.676773,65.470177 198.781494,60.503597 
z"/>
<path fill="#FEEF57" opacity="1.000000" stroke="none" 
	d="
M369.427368,449.007446 
	C369.285522,449.444580 369.143646,449.881683 368.716003,450.831146 
	C366.224030,455.178436 364.017761,459.013367 361.811493,462.848328 
	C361.811493,462.848328 361.946838,462.959167 361.562073,462.934998 
	C355.688568,466.853729 350.214264,470.816956 344.703400,474.728546 
	C342.713379,476.141052 340.635468,477.429657 338.597656,478.774780 
	C338.233978,478.796875 337.870331,478.818939 336.868225,478.929688 
	C330.486420,481.010315 324.743073,483.002289 318.999695,484.994263 
	C318.241821,485.020111 317.483948,485.045959 316.008636,485.112732 
	C313.524719,485.760956 311.758209,486.368286 309.991730,486.975616 
	C308.601898,487.014954 307.212067,487.054291 305.011169,487.117676 
	C301.139191,487.772186 298.078247,488.402588 295.017334,489.033020 
	C293.286835,489.068787 291.556305,489.104553 288.973785,489.173798 
	C284.152283,489.453278 280.179626,489.950958 276.213928,489.900391 
	C261.438843,489.712036 246.659607,489.523651 231.894180,488.993713 
	C216.243607,488.432007 200.904587,485.531921 186.439056,479.618774 
	C177.323502,475.892548 168.900848,470.471191 160.167358,465.810272 
	C160.167358,465.810272 160.045059,466.001556 160.048859,465.590759 
	C158.025650,463.145905 155.998657,461.111847 153.863495,458.772888 
	C152.821777,457.316467 151.888260,456.164978 150.928925,454.692749 
	C150.311111,453.804565 149.719101,453.237122 149.122070,452.488831 
	C149.117065,452.307983 148.929977,451.998322 148.905975,451.632446 
	C145.201157,443.646667 143.788879,435.595215 143.869431,427.154327 
	C144.238922,388.435791 144.503708,349.716248 144.898621,310.670105 
	C144.988068,309.891998 144.984940,309.440887 145.245544,308.741333 
	C145.884064,307.229401 146.258636,305.965912 146.633682,304.702515 
	C149.779495,294.105896 156.213943,285.632416 164.149872,277.878021 
	C164.594360,277.499481 164.784973,277.207336 165.332199,276.901184 
	C168.119232,275.509338 170.526764,274.089172 172.983856,272.760681 
	C186.887634,265.243073 201.972046,263.883392 217.425308,263.948975 
	C250.050766,264.087463 282.677277,264.003357 315.303253,263.960571 
	C317.246826,263.958008 319.189850,263.514587 321.477905,263.311218 
	C322.513824,263.309387 323.204926,263.272583 324.215515,263.448669 
	C327.830536,263.442047 331.184570,263.539337 334.410736,262.943909 
	C344.254883,261.127136 353.955505,258.831787 361.488800,251.057190 
	C362.238342,250.485596 362.700684,249.939636 363.491180,249.275757 
	C367.855194,245.281891 373.056763,242.335724 374.145538,236.088531 
	C374.095734,236.028152 374.146667,236.176163 374.453339,236.108063 
	C375.161713,235.360092 375.563416,234.680222 376.056091,233.849213 
	C376.147095,233.698059 376.137024,233.345352 376.419983,233.129547 
	C377.997467,229.939682 379.291992,226.965591 380.706299,223.660782 
	C380.830292,222.863922 380.834503,222.397781 381.129425,221.707611 
	C382.530640,215.651855 383.641113,209.820145 384.846008,203.596848 
	C384.909454,202.136597 384.878479,201.067917 384.936707,199.605377 
	C384.976074,198.141327 384.926178,197.071182 384.958496,195.538452 
	C385.004669,177.706909 384.968689,160.337936 385.315125,142.784821 
	C387.490723,142.369919 389.282867,141.949005 391.077209,141.939377 
	C402.565063,141.877777 414.053375,141.921524 425.541504,141.901199 
	C436.424011,141.881958 446.080322,145.629349 454.650024,152.000580 
	C459.675568,155.736908 464.136383,160.232803 468.851227,164.387024 
	C468.851227,164.387024 468.838409,164.719681 468.943665,165.201538 
	C470.346649,167.464874 471.644379,169.246353 472.942078,171.027817 
	C473.134094,171.588196 473.326080,172.148575 473.820190,173.200073 
	C484.920441,193.822189 489.948669,215.579498 490.807648,238.154175 
	C491.438751,254.739532 490.469238,271.385803 490.213043,288.004913 
	C489.786316,290.394257 489.359589,292.783600 488.695251,295.839661 
	C486.333679,304.679749 484.209747,312.853058 482.085846,321.026398 
	C481.701202,321.784546 481.316559,322.542694 480.672424,323.842163 
	C479.278656,326.921936 478.144348,329.460388 477.010071,331.998840 
	C477.010040,331.998840 476.848022,332.320404 476.571716,332.632202 
	C475.940308,333.629913 475.585236,334.315826 475.230164,335.001770 
	C475.101074,335.359039 474.971985,335.716309 474.543091,336.514832 
	C467.108765,346.616821 458.990692,355.279327 448.893860,361.933624 
	C448.893860,361.933624 448.424683,362.015717 447.852173,362.090637 
	C440.858917,364.455292 434.438202,366.744995 428.017487,369.034729 
	C427.567719,369.020325 427.117920,369.005951 425.872833,369.001587 
	C369.207306,369.011627 313.337128,369.011627 257.117371,369.011627 
	C257.117371,371.106842 257.117371,372.555695 257.117371,374.004517 
	C256.337646,385.068054 256.337646,385.066254 267.237885,385.068390 
	C301.145233,385.075073 335.052551,385.083221 369.475372,385.528442 
	C370.028839,388.115662 370.089417,390.265137 370.101257,392.414886 
	C370.197815,409.943237 370.285309,427.471588 370.375519,444.999969 
	C370.263000,445.452728 370.150482,445.905518 369.832031,446.855835 
	C369.559845,447.904755 369.493622,448.456116 369.427368,449.007446 
M320.660553,413.209534 
	C309.672424,414.951111 302.826630,420.689178 301.223633,430.255035 
	C299.975983,437.700592 301.777863,446.739288 311.522034,452.009460 
	C319.548645,456.350708 332.115265,454.585785 336.987976,447.870178 
	C341.993591,440.971344 343.943359,433.472137 340.036438,425.397095 
	C336.325104,417.726318 330.045166,413.669495 320.660553,413.209534 
z"/>
<path fill="#FFFEFE" opacity="1.000000" stroke="none" 
	d="
M376.137024,233.345352 
	C376.137024,233.345352 376.147095,233.698059 375.727417,233.895660 
	C374.920746,234.787582 374.533722,235.481873 374.146667,236.176163 
	C374.146667,236.176163 374.095734,236.028152 373.775574,236.066391 
	C370.364044,239.464600 367.272705,242.824570 364.242279,246.118332 
	C362.885895,245.336121 362.210205,244.860077 361.467621,244.538498 
	C360.354919,244.056610 359.209900,243.621735 358.037018,243.340973 
	C357.889313,243.305603 357.147034,244.689102 357.260864,244.795746 
	C358.130493,245.610886 359.155579,246.257370 360.109985,246.985611 
	C361.140289,247.771759 362.146362,248.589645 363.163025,249.393677 
	C362.700684,249.939636 362.238342,250.485596 361.085052,251.033173 
	C354.810699,250.828583 351.582672,259.163025 344.730133,254.450485 
	C344.941864,259.491669 341.825439,260.646545 338.871582,259.792297 
	C333.014435,258.098419 328.252533,259.322693 323.896057,263.235779 
	C323.204926,263.272583 322.513824,263.309387 321.202942,262.962830 
	C318.794220,262.385895 317.005493,262.025970 315.216309,262.023682 
	C287.450989,261.988068 259.682312,261.747498 231.921829,262.115845 
	C219.913574,262.275146 207.831696,260.210754 195.871689,262.925659 
	C195.126526,263.094818 194.225586,262.821259 193.451767,262.579102 
	C189.873413,261.459320 186.360428,260.088501 182.727417,259.204712 
	C181.109009,258.811035 179.262894,259.353394 177.520126,259.470886 
	C177.558258,259.761932 177.596375,260.052979 177.634491,260.344025 
	C181.590149,261.467407 185.545807,262.590790 189.501465,263.714142 
	C189.468460,264.148346 189.435455,264.582550 189.402451,265.016754 
	C185.784027,265.016754 182.165588,265.016754 178.167831,265.016754 
	C177.274796,265.973450 175.999374,267.573914 174.489151,268.908752 
	C171.384506,271.652802 168.154205,274.254761 164.975616,276.915222 
	C164.784973,277.207336 164.594360,277.499481 163.787552,277.893311 
	C161.430725,278.867767 159.634232,279.646393 157.964050,280.637848 
	C156.015869,281.794373 154.178040,283.136780 153.073730,283.875671 
	C151.185577,288.281342 150.122482,292.999817 147.434402,296.453461 
	C144.251984,300.542297 144.394714,304.546997 144.981812,308.989777 
	C144.984940,309.440887 144.988068,309.891998 144.543579,310.724121 
	C140.068954,312.672852 140.960327,316.149750 141.086517,319.203339 
	C141.263855,323.494568 141.945541,327.775146 141.956146,332.061401 
	C142.033966,363.526733 141.998627,394.992340 141.996735,426.457855 
	C141.996643,427.956055 142.384201,429.604401 141.897644,430.927856 
	C138.943054,438.964966 144.733154,444.620880 147.240646,451.153748 
	C147.407120,451.587494 148.348831,451.723724 148.929977,451.998322 
	C148.929977,451.998322 149.117065,452.307983 149.108276,452.843231 
	C149.717896,453.923492 150.336304,454.468506 150.954727,455.013489 
	C151.888260,456.164978 152.821777,457.316467 153.874176,459.121399 
	C154.995575,461.516541 155.998093,463.258270 157.000610,465.000000 
	C153.759811,465.069580 150.410660,465.685974 147.305588,465.070648 
	C143.401108,464.296906 142.163437,460.686554 143.636230,456.943939 
	C144.278809,455.311005 144.860397,453.516388 144.819031,451.810974 
	C144.798813,450.977661 143.423447,449.846619 142.422318,449.441833 
	C140.739471,448.761444 138.865723,448.553192 137.072281,448.146362 
	C138.120209,446.603119 139.168121,445.059875 140.790833,442.670166 
	C138.921127,442.387970 136.983124,441.618286 135.232422,441.923340 
	C130.528320,442.743011 128.908463,441.738983 129.055374,436.787109 
	C129.222122,431.167419 129.978439,425.565186 130.142593,419.945526 
	C130.506012,407.504059 130.671234,395.056641 130.854156,382.610718 
	C130.861496,382.111267 130.223953,381.602356 129.541138,380.580322 
	C128.704315,381.859039 128.281799,383.298126 127.525681,383.502380 
	C125.699059,383.995880 122.562378,384.735687 121.986183,383.927399 
	C118.490768,379.024139 114.435455,380.849976 110.222549,382.150604 
	C108.679337,382.627045 107.025162,382.763885 105.412285,382.988770 
	C104.106041,383.170868 102.294159,382.742218 101.549202,383.459564 
	C95.302727,389.474518 87.610199,386.238068 80.565582,386.895203 
	C79.275299,387.015533 76.807014,386.092651 76.693733,385.368164 
	C75.949745,380.609650 72.554382,381.279449 69.254799,380.774170 
	C67.836929,380.557068 66.373146,378.373383 65.577774,376.763306 
	C62.666115,370.869110 57.799141,368.335388 51.405956,369.701782 
	C50.624832,369.868744 49.795368,369.809570 47.905113,369.916382 
	C47.905113,365.071136 47.905113,360.431885 48.252289,355.547607 
	C48.969196,356.902069 49.338924,358.501556 49.711273,360.112366 
	C53.906796,359.279266 55.830723,360.891571 55.781830,365.397736 
	C57.031857,365.456757 59.015800,365.040131 59.407906,365.648865 
	C62.856071,371.001892 68.432724,368.964447 73.126984,369.907013 
	C73.126984,369.907013 73.033470,369.965332 73.032219,370.325500 
	C72.901901,371.664032 72.904861,372.682770 72.620201,373.613586 
	C71.562469,377.072327 72.468338,378.157227 76.237762,377.522919 
	C79.360306,376.997437 82.650200,377.549683 85.851479,377.368713 
	C87.169388,377.294189 88.478600,376.619629 89.739143,376.092255 
	C91.236450,375.465790 92.662712,374.131897 94.144691,374.094543 
	C103.019485,373.871033 111.886284,373.538971 120.530701,376.590576 
	C124.654556,378.046387 128.075378,376.697906 128.885834,371.696106 
	C128.885834,371.696106 128.779526,371.385101 128.881653,370.942688 
	C128.972641,370.297668 128.961533,370.095032 128.950409,369.892365 
	C128.880951,354.900787 128.811493,339.909180 129.111877,324.280090 
	C129.308304,322.760834 129.134842,321.879059 128.961395,320.997314 
	C128.886307,319.602905 128.811203,318.208527 129.082672,316.267029 
	C129.277939,315.147095 129.126663,314.574249 128.975388,314.001434 
	C128.940125,313.239380 128.904861,312.477325 129.239136,311.099854 
	C129.825150,309.522522 129.804718,308.411713 130.299316,307.624573 
	C132.373962,304.322876 134.940201,301.967285 133.663666,296.777985 
	C132.712204,292.910126 136.151855,287.962067 137.638077,283.488678 
	C138.962997,284.005310 140.084457,284.442596 140.898056,284.759827 
	C143.975418,280.053314 142.228592,273.329559 148.686737,270.213379 
	C148.563828,272.327942 148.467926,273.977783 148.316818,276.577301 
	C154.210678,273.553345 151.453079,267.834137 153.797989,264.399475 
	C160.538513,265.033569 162.037689,262.934814 159.978470,257.944427 
	C160.451935,257.621521 160.925415,257.298615 161.921204,257.252441 
	C165.292038,257.305084 168.180984,257.300079 170.975586,256.784149 
	C173.032074,256.404480 175.070786,255.553665 176.927719,254.558792 
	C179.499771,253.180786 181.350418,250.048584 184.776215,254.142960 
	C185.921722,255.512009 190.285233,254.467712 193.111450,254.063232 
	C195.384903,253.737854 197.555893,252.101074 199.776627,252.092041 
	C232.531418,251.958450 265.287018,251.967041 298.042145,252.049438 
	C301.433075,252.057953 304.822296,252.752869 308.535461,253.165192 
	C308.863770,252.480560 309.425323,251.309448 309.986877,250.138351 
	C310.738403,250.045105 311.489960,249.951843 312.904541,250.220703 
	C318.148712,250.304520 322.729523,250.022079 327.310944,249.749420 
	C330.195038,249.577774 333.080017,249.420670 335.964630,249.257034 
	C336.016113,249.724701 336.067627,250.192383 336.119110,250.660049 
	C338.801483,249.410507 341.483826,248.160980 343.286499,247.321228 
	C343.945892,244.920532 343.880432,242.729248 344.934021,241.780121 
	C348.057465,238.966232 351.729645,236.771729 354.976349,234.080597 
	C357.125793,232.298935 358.955872,230.118912 360.840088,228.036819 
	C361.578369,227.221054 361.890869,225.598633 362.709137,225.343414 
	C369.116486,223.345047 366.994080,218.934219 365.911987,214.776672 
	C365.911987,214.776672 365.884247,214.345001 366.343170,214.168854 
	C367.388611,213.606735 367.975128,213.220779 368.561646,212.834808 
	C368.027985,212.553024 367.494324,212.271210 366.960663,211.989395 
	C367.109650,211.119659 367.258636,210.249939 368.024353,209.132492 
	C368.733978,207.581223 368.826813,206.277664 368.919647,204.974106 
	C368.923676,204.526642 368.927704,204.079178 369.400085,203.247070 
	C370.797485,199.715164 371.785706,196.583481 372.621399,193.411621 
	C372.890167,192.391495 372.591522,191.225616 372.839691,190.195602 
	C373.473480,187.565094 374.892334,184.976532 374.904816,182.365967 
	C375.052521,151.429001 375.004517,120.491081 374.987396,89.553413 
	C374.986481,87.900932 375.137451,86.138466 374.637024,84.618370 
	C373.493835,81.145691 374.979370,79.756592 378.122253,78.936035 
	C379.294830,78.629898 380.239655,77.451332 382.030121,76.118294 
	C376.691620,74.815063 372.964783,73.905273 369.237976,72.995476 
	C369.103088,72.572899 368.968201,72.150337 369.140198,71.170197 
	C369.297211,67.074959 369.147400,63.537308 368.997559,59.999653 
	C370.863831,62.022472 372.730072,64.045288 374.746918,66.231308 
	C375.922546,65.302750 376.606079,64.362885 377.453583,64.179085 
	C379.077271,63.826958 381.098785,63.322803 382.374146,63.990952 
	C383.362457,64.508728 384.156952,66.902878 383.822327,68.132111 
	C383.080872,70.855743 383.394348,72.519997 385.646912,74.536438 
	C386.871368,75.632561 386.888580,78.467041 386.861145,80.509521 
	C386.663269,95.250816 386.229706,109.989243 386.081055,124.730690 
	C386.048950,127.917679 391.335144,131.173004 394.523773,130.738998 
	C397.990479,130.267166 401.514954,130.229568 405.011139,129.962128 
	C414.492126,129.236877 424.204895,131.904541 433.514252,127.561005 
	C435.064819,126.837540 437.936798,128.946213 440.930542,130.005249 
	C441.613251,130.059982 443.254333,130.191559 445.003418,131.003357 
	C446.407654,131.789062 447.703857,131.894531 449.000061,132.000000 
	C449.453125,132.787369 450.251984,133.558243 450.290497,134.365402 
	C450.383972,136.324463 449.943024,138.309875 450.045685,140.267456 
	C450.229767,143.777908 453.064819,145.898697 456.094971,144.305969 
	C461.208496,141.618179 463.551880,143.757965 464.685699,148.448074 
	C465.370148,151.279327 465.577820,154.225861 465.694855,157.412292 
	C461.215363,152.894760 455.986603,149.413589 450.629303,146.122879 
	C449.148041,145.213028 447.504944,144.399399 445.827118,144.004425 
	C436.033966,141.699097 426.208466,139.531418 415.940857,137.215042 
	C412.889709,141.121399 403.424957,141.584702 398.084717,137.085449 
	C396.024292,141.601669 391.959656,139.564163 388.588562,140.010117 
	C386.798248,140.246948 383.856049,139.154755 384.932709,142.968979 
	C384.968689,160.337936 385.004669,177.706909 384.589905,195.545563 
	C383.144073,196.861496 382.149017,197.707748 381.153931,198.553986 
	C382.385132,199.035751 383.616302,199.517502 384.847473,199.999268 
	C384.878479,201.067917 384.909454,202.136597 384.495178,203.611160 
	C381.291626,205.858948 379.723083,207.940552 381.374725,211.549789 
	C382.019745,212.959320 381.480194,214.910934 381.480194,216.615631 
	C380.808655,216.867401 380.137115,217.119156 379.465576,217.370911 
	C379.148865,216.138733 378.832184,214.906555 378.515472,213.674377 
	C378.112549,214.023102 377.709625,214.371826 377.306702,214.720551 
	C376.512634,217.555328 375.718536,220.390121 374.594482,224.402893 
	C377.460754,222.946045 377.769714,217.783035 380.838745,221.931656 
	C380.834503,222.397781 380.830292,222.863922 380.387512,223.724945 
	C376.184570,226.164597 375.693115,229.561737 376.137024,233.345352 
M356.387085,237.537781 
	C358.308716,240.846130 361.507996,240.522705 364.229340,239.550491 
	C365.771271,238.999649 366.705200,236.746918 367.912964,235.260681 
	C367.562927,234.798599 367.212891,234.336517 366.862885,233.874420 
	C364.394501,239.577011 360.084167,236.853897 356.387085,237.537781 
M435.277374,138.859467 
	C437.981354,138.859467 440.685364,138.859467 444.206146,138.859467 
	C439.669342,134.990585 436.649231,135.100052 435.277374,138.859467 
M369.882751,224.534790 
	C370.295502,222.588623 370.708252,220.642471 371.121033,218.696304 
	C370.430450,218.650482 369.739899,218.604660 369.049347,218.558838 
	C369.136017,220.424728 369.222687,222.290604 369.882751,224.534790 
M460.327423,148.692993 
	C460.636688,147.787994 460.945984,146.883011 461.255249,145.978012 
	C460.412384,145.978958 459.569519,145.979904 458.726654,145.980850 
	C459.036865,146.884735 459.347076,147.788620 460.327423,148.692993 
M134.925079,434.693878 
	C134.410782,434.430298 133.896500,434.166718 133.382217,433.903137 
	C133.385941,434.652374 133.389664,435.401642 133.393387,436.150879 
	C133.905228,435.882141 134.417084,435.613434 134.925079,434.693878 
M145.243881,277.977448 
	C145.397766,278.822021 145.551636,279.666595 145.705505,280.511139 
	C146.168686,280.336182 146.631851,280.161224 147.095032,279.986237 
	C146.625305,279.159760 146.155579,278.333282 145.243881,277.977448 
M147.551941,458.677094 
	C146.785950,458.794952 146.019958,458.912842 145.253952,459.030701 
	C145.337540,459.470276 145.421127,459.909882 145.504715,460.349457 
	C146.219650,460.007507 146.934570,459.665588 147.551941,458.677094 
M384.755524,80.022430 
	C384.601715,79.178169 384.447906,78.333908 384.294128,77.489639 
	C383.831055,77.664581 383.367950,77.839523 382.904877,78.014458 
	C383.374481,78.840652 383.844086,79.666840 384.755524,80.022430 
M373.273834,209.879807 
	C373.466492,210.424805 373.659149,210.969803 373.851807,211.514801 
	C374.131104,211.386993 374.410370,211.259201 374.689667,211.131393 
	C374.363037,210.570450 374.036438,210.009506 373.273834,209.879807 
M155.472305,267.685516 
	C156.020309,268.024719 156.568314,268.363922 157.116287,268.703125 
	C157.251373,268.428467 157.386459,268.153809 157.521561,267.879150 
	C156.984909,267.673859 156.448257,267.468536 155.472305,267.685516 
M328.097656,253.732086 
	C328.042664,253.232452 327.987671,252.732803 327.932678,252.233170 
	C327.485168,252.348068 327.037689,252.462967 326.590179,252.577850 
	C326.893036,253.004395 327.195892,253.430923 328.097656,253.732086 
M170.797638,261.390900 
	C170.793442,261.785553 170.789246,262.180237 170.785034,262.574890 
	C170.948822,262.576385 171.254944,262.588898 171.255798,262.577820 
	C171.286102,262.185089 171.287796,261.790161 170.797638,261.390900 
M141.568436,288.296387 
	C141.295639,288.010651 141.022842,287.724884 140.750046,287.439117 
	C140.631805,287.552246 140.404510,287.757507 140.411041,287.765198 
	C140.665634,288.066589 140.941544,288.349976 141.568436,288.296387 
M372.202759,230.609894 
	C372.206909,230.214737 372.211090,229.819565 372.215271,229.424393 
	C372.051300,229.422867 371.744781,229.410370 371.743927,229.421417 
	C371.713654,229.814636 371.712006,230.210052 372.202759,230.609894 
z"/>
<path fill="#FAFDF8" opacity="1.000000" stroke="none" 
	d="
M257.575500,374.004242 
	C257.117371,372.555695 257.117371,371.106842 257.117371,369.011627 
	C313.337128,369.011627 369.207306,369.011627 425.542969,369.079773 
	C424.457825,370.744965 423.109100,372.661285 421.279999,373.818085 
	C420.201202,374.500305 418.361115,373.996155 416.863434,373.996307 
	C363.920166,374.001038 310.976898,374.002258 257.575500,374.004242 
z"/>
<path fill="#FAFDF8" opacity="1.000000" stroke="none" 
	d="
M160.140213,466.173035 
	C168.900848,470.471191 177.323502,475.892548 186.439056,479.618774 
	C200.904587,485.531921 216.243607,488.432007 231.894180,488.993713 
	C246.659607,489.523651 261.438843,489.712036 276.213928,489.900391 
	C280.179626,489.950958 284.152283,489.453278 288.561279,489.304047 
	C286.835358,490.266693 284.715515,491.703705 282.495148,491.880951 
	C277.693146,492.264282 272.838043,491.923187 268.007416,492.018372 
	C253.218842,492.309784 238.432388,492.737152 223.642746,492.915466 
	C221.679092,492.939148 219.701782,491.827759 216.378769,490.840210 
	C213.478210,492.593475 209.996796,491.738281 205.945251,488.462860 
	C203.717819,486.662140 199.167221,486.719116 195.978012,487.402832 
	C192.628387,488.120941 190.605042,487.437134 188.570969,485.087219 
	C183.632034,479.381439 177.459274,477.144562 169.704361,478.799164 
	C169.704361,477.369049 169.704361,476.021667 169.704361,474.590485 
	C167.249451,475.533966 165.043549,476.381775 162.837662,477.229553 
	C162.612259,476.827759 162.386871,476.425964 162.161469,476.024139 
	C163.051575,474.725616 163.941666,473.427063 164.954163,471.949982 
	C163.286545,470.084961 161.699814,468.310364 160.140213,466.173035 
z"/>
<path fill="#FAFDF8" opacity="1.000000" stroke="none" 
	d="
M272.950256,23.422302 
	C257.736511,24.118221 242.383545,23.575701 227.218399,25.013697 
	C213.089844,26.353405 199.161133,29.800446 184.769318,32.379646 
	C184.347351,32.279797 184.261795,32.120708 184.259369,31.960358 
	C184.218628,29.276957 180.908890,26.008282 185.097595,24.078016 
	C189.105270,22.231178 191.656754,25.237598 195.116440,28.720324 
	C200.151840,25.722078 205.269318,22.103718 210.878311,19.576077 
	C213.685013,18.311256 217.388535,19.036545 221.136871,18.837864 
	C220.829361,23.924593 224.018280,23.087221 227.152222,22.851988 
	C233.663879,22.363234 240.193253,22.110779 246.715408,21.762209 
	C247.526230,21.718876 248.612442,22.008371 249.106796,21.592197 
	C255.669235,16.067282 263.317230,20.159960 270.386139,19.276171 
	C271.054108,19.192654 272.049561,21.728420 272.950256,23.422302 
z"/>
<path fill="#FAFDF8" opacity="1.000000" stroke="none" 
	d="
M490.548523,287.954346 
	C490.469238,271.385803 491.438751,254.739532 490.807648,238.154175 
	C489.948669,215.579498 484.920441,193.822189 474.092529,173.335541 
	C476.352570,176.401413 478.728729,179.769012 480.907471,183.259842 
	C483.019623,186.643921 485.177643,190.041260 486.824951,193.656311 
	C487.680542,195.533997 487.400208,197.907715 487.764069,200.034943 
	C489.145660,208.112274 490.489410,216.198135 492.044525,224.242676 
	C492.605042,227.142227 494.060425,229.885223 494.481323,232.790375 
	C494.846527,235.311188 494.214996,237.960754 494.229706,240.552261 
	C494.245758,243.375854 493.531769,246.809006 494.849030,248.894333 
	C497.628448,253.294418 497.312744,257.318207 495.609131,261.683655 
	C493.999725,265.807831 492.360931,269.688690 494.657349,274.383575 
	C495.447540,275.998993 493.538940,278.896332 492.965179,281.233093 
	C492.674622,282.416443 492.753723,283.698730 492.403107,284.856812 
	C492.078857,285.927612 491.404266,286.892334 490.548523,287.954346 
z"/>
<path fill="#FAFDF8" opacity="1.000000" stroke="none" 
	d="
M21.648743,262.083618 
	C23.615440,276.020203 24.343922,290.205170 27.023993,304.011261 
	C29.090805,314.658203 33.607761,324.829468 37.053558,335.578644 
	C33.082066,333.433197 26.846636,321.439117 26.698606,316.986206 
	C26.641989,315.283081 25.191969,313.625671 24.374495,311.948578 
	C22.585182,308.277863 19.371920,304.648865 19.264879,300.930115 
	C18.912397,288.684204 19.666197,276.405365 20.074697,264.141785 
	C20.097012,263.471863 20.842041,262.825989 21.648743,262.083618 
z"/>
<path fill="#FAFDF8" opacity="1.000000" stroke="none" 
	d="
M370.683289,444.916046 
	C370.285309,427.471588 370.197815,409.943237 370.101257,392.414886 
	C370.089417,390.265137 370.028839,388.115662 369.936096,385.503296 
	C370.588135,386.275085 371.732849,387.445923 371.923431,388.755676 
	C372.629730,393.608521 371.034790,398.501617 374.537018,403.353210 
	C376.361420,405.880493 374.756470,410.758362 375.043549,414.548523 
	C375.522156,420.867432 376.609406,427.157928 376.751953,433.475922 
	C376.809692,436.032471 375.236084,438.714478 374.061707,441.175690 
	C373.398163,442.566284 372.037659,443.624298 370.683289,444.916046 
z"/>
<path fill="#FFFEFE" opacity="1.000000" stroke="none" 
	d="
M354.230835,48.940872 
	C353.888794,48.769550 353.546722,48.598225 353.110260,47.711845 
	C353.015839,44.493057 353.015839,41.989323 353.015839,40.353222 
	C349.357819,40.704346 346.547424,40.974110 343.737030,41.243874 
	C343.737030,41.243874 343.945404,41.167683 343.920410,40.841179 
	C342.572998,34.687088 340.654419,33.430466 335.179901,34.487648 
	C334.571533,34.605137 333.732056,33.526005 332.999756,33.001831 
	C335.874298,29.548891 339.289185,30.532984 342.357086,32.319096 
	C344.725586,33.698040 346.426880,34.305992 349.114105,32.728474 
	C352.641876,30.657520 354.496338,32.348114 354.423706,36.448414 
	C354.397583,37.921047 355.271667,39.643925 356.240234,40.845192 
	C357.707458,42.665001 359.616425,44.128643 362.419403,46.758484 
	C371.452576,48.248932 372.618439,49.891258 368.690857,58.574165 
	C367.249878,57.901405 366.345276,56.639416 365.117249,55.976582 
	C361.295502,53.913746 359.937469,48.036800 354.230835,48.940872 
M366.119476,49.274899 
	C365.575256,49.467312 365.031036,49.659725 364.486816,49.852127 
	C364.614380,50.131092 364.741943,50.410053 364.869507,50.689014 
	C365.429657,50.362797 365.989838,50.036579 366.119476,49.274899 
z"/>
<path fill="#FAFDF8" opacity="1.000000" stroke="none" 
	d="
M145.709595,61.100285 
	C145.284500,67.423302 143.903275,73.785942 143.799744,80.169304 
	C143.541107,96.116463 143.862579,112.073029 144.066711,128.478271 
	C141.712616,127.312363 139.243073,125.694008 136.773514,124.075645 
	C137.333191,123.848175 137.892868,123.620712 138.452560,123.393242 
	C139.301910,120.093300 140.358337,116.829529 140.942780,113.483315 
	C141.535278,110.091011 142.069168,106.596909 141.898819,103.183823 
	C141.624268,97.683090 140.554596,92.225197 140.191284,86.724739 
	C139.892075,82.194328 140.130219,77.628410 140.130219,72.735107 
	C139.523010,72.891785 138.484451,73.159760 137.202103,73.490646 
	C138.078598,70.714584 138.834030,68.321938 139.245316,67.019279 
	C141.744156,64.610641 143.539597,62.879990 145.709595,61.100285 
z"/>
<path fill="#FAFDF8" opacity="1.000000" stroke="none" 
	d="
M80.684731,146.031342 
	C60.089676,152.168762 45.226105,165.481827 35.444298,185.270538 
	C34.796787,182.562958 34.071964,179.611618 34.170593,176.688049 
	C34.251549,174.288330 34.911690,171.647964 38.501511,171.861969 
	C39.370316,171.913773 41.110348,170.925568 41.066933,170.741135 
	C39.558628,164.333847 48.039761,164.893921 48.649921,159.875122 
	C48.754261,159.016876 50.824139,158.397598 52.355961,157.435577 
	C51.739326,154.329590 52.439602,152.019394 57.287502,153.553833 
	C59.498230,154.253571 61.200500,153.956680 61.642124,150.724655 
	C61.813709,149.468903 64.641434,148.284363 66.461716,147.635452 
	C67.992798,147.089645 69.828682,147.460999 71.509712,147.259872 
	C74.426880,146.910828 77.328667,146.433212 80.684731,146.031342 
z"/>
<path fill="#FAFDF8" opacity="1.000000" stroke="none" 
	d="
M385.315125,142.784821 
	C383.856049,139.154755 386.798248,140.246948 388.588562,140.010117 
	C391.959656,139.564163 396.024292,141.601669 398.084717,137.085449 
	C403.424957,141.584702 412.889709,141.121399 415.940857,137.215042 
	C426.208466,139.531418 436.033966,141.699097 445.827118,144.004425 
	C447.504944,144.399399 449.148041,145.213028 450.629303,146.122879 
	C455.986603,149.413589 461.215363,152.894760 465.694397,157.852661 
	C466.967224,159.875778 467.935638,161.750229 468.877625,164.005859 
	C464.136383,160.232803 459.675568,155.736908 454.650024,152.000580 
	C446.080322,145.629349 436.424011,141.881958 425.541504,141.901199 
	C414.053375,141.921524 402.565063,141.877777 391.077209,141.939377 
	C389.282867,141.949005 387.490723,142.369919 385.315125,142.784821 
z"/>
<path fill="#FAFDF8" opacity="1.000000" stroke="none" 
	d="
M332.604340,33.000751 
	C333.732056,33.526005 334.571533,34.605137 335.179901,34.487648 
	C340.654419,33.430466 342.572998,34.687088 343.829498,40.904755 
	C323.209869,30.034885 300.764282,26.086245 277.385559,24.090424 
	C277.523285,22.317713 278.055084,20.675550 278.201904,20.222183 
	C281.941071,21.350887 284.890656,22.488707 287.945526,23.103174 
	C292.125366,23.943928 296.369507,24.565941 300.616211,24.938648 
	C303.542114,25.195440 307.165253,26.007145 306.920013,20.982431 
	C311.665192,25.727076 316.084381,29.892000 323.158783,29.127531 
	C324.347443,28.999081 325.668396,30.252592 326.952545,30.811714 
	C328.692383,31.569252 330.455688,32.272903 332.604340,33.000751 
z"/>
<path fill="#FAFDF8" opacity="1.000000" stroke="none" 
	d="
M256.000061,129.531876 
	C256.476074,131.087326 257.212311,133.085831 257.364899,135.127960 
	C257.597351,138.239227 257.425751,141.380676 257.425751,144.787460 
	C202.887833,144.787460 148.896255,144.787460 94.445137,144.684891 
	C95.345215,143.892212 96.731453,142.567917 98.059738,142.623703 
	C103.326874,142.844849 108.574860,143.912109 113.831795,143.925262 
	C159.078217,144.038452 204.325058,143.990982 249.571762,143.989395 
	C255.993652,143.989182 255.994385,143.984055 255.999496,137.480148 
	C256.001434,134.984924 255.999222,132.489700 256.000061,129.531876 
z"/>
<path fill="#FAFDF8" opacity="1.000000" stroke="none" 
	d="
M26.640406,209.049408 
	C25.397146,225.702805 23.820599,242.406555 22.131660,259.558563 
	C21.556736,255.546936 20.984154,251.094620 20.677361,246.624054 
	C20.520254,244.334717 21.204981,241.957779 20.868729,239.716537 
	C20.076736,234.437668 18.900270,229.216476 17.806742,223.598984 
	C19.437681,223.598984 20.469477,223.598984 20.834517,223.598984 
	C21.667706,220.612473 22.385498,218.039581 23.264671,214.888245 
	C22.775215,214.243423 21.724375,212.859024 20.618626,211.402283 
	C22.951712,210.457932 24.629416,209.778870 26.640406,209.049408 
z"/>
<path fill="#FAFDF8" opacity="1.000000" stroke="none" 
	d="
M183.915924,32.249138 
	C176.790161,36.085297 169.036697,39.363682 161.924133,43.694607 
	C157.675964,46.281372 154.432434,50.518028 150.435257,54.178490 
	C149.708847,53.474129 148.952957,52.614471 148.925919,51.732479 
	C148.860229,49.589222 148.429306,46.933773 149.491333,45.444107 
	C150.348831,44.241318 153.171432,44.439526 156.139648,43.795475 
	C159.245651,41.018738 163.269867,37.421135 167.294083,33.823532 
	C173.076141,36.733967 178.040070,31.767298 183.915924,32.249138 
z"/>
<path fill="#FAFDF8" opacity="1.000000" stroke="none" 
	d="
M449.249603,362.094788 
	C458.990692,355.279327 467.108765,346.616821 474.550781,336.801575 
	C473.833344,339.098389 472.808350,341.549744 471.605530,344.426483 
	C472.104980,345.563385 472.879761,347.326965 473.654541,349.090546 
	C473.233124,349.318329 472.811707,349.546082 472.390289,349.773834 
	C471.320404,348.926880 470.250519,348.079895 469.244598,347.283569 
	C468.776703,347.419342 468.364563,347.411652 468.174133,347.613251 
	C465.160797,350.804504 462.182526,354.028809 459.181519,357.231812 
	C457.761139,358.747803 456.534851,360.635040 454.801880,361.609375 
	C453.393707,362.401154 451.361053,362.082306 449.249603,362.094788 
z"/>
<path fill="#FAFDF8" opacity="1.000000" stroke="none" 
	d="
M72.915886,369.621124 
	C68.432724,368.964447 62.856071,371.001892 59.407906,365.648865 
	C59.015800,365.040131 57.031857,365.456757 55.781830,365.397736 
	C55.830723,360.891571 53.906796,359.279266 49.711273,360.112366 
	C49.338924,358.501556 48.969196,356.902069 48.300331,355.150604 
	C47.020630,353.183441 46.040073,351.368286 45.103386,349.185181 
	C52.812988,357.698181 61.334976,365.429138 72.915886,369.621124 
z"/>
<path fill="#FAFDF8" opacity="1.000000" stroke="none" 
	d="
M338.985382,478.953278 
	C340.635468,477.429657 342.713379,476.141052 344.703400,474.728546 
	C350.214264,470.816956 355.688568,466.853729 361.513092,462.862549 
	C360.629547,464.841431 359.689514,467.123108 358.127045,468.837585 
	C355.625275,471.582764 352.754364,474.001190 349.959015,476.466522 
	C346.914307,479.151825 343.704224,481.438995 338.985382,478.953278 
z"/>
<path fill="#FAFDF8" opacity="1.000000" stroke="none" 
	d="
M354.354828,49.240753 
	C359.937469,48.036800 361.295502,53.913746 365.117249,55.976582 
	C366.345276,56.639416 367.249878,57.901405 368.650635,58.945702 
	C368.998779,59.002121 368.998627,59.500889 368.998108,59.750271 
	C369.147400,63.537308 369.297211,67.074959 369.150330,70.835197 
	C365.546265,62.893818 361.147491,55.459026 354.354828,49.240753 
z"/>
<path fill="#FAFDF8" opacity="1.000000" stroke="none" 
	d="
M482.428650,320.956665 
	C484.209747,312.853058 486.333679,304.679749 488.732391,296.255188 
	C489.362457,297.418396 489.597656,298.877655 490.104218,300.235687 
	C490.702576,301.839722 491.535400,303.356293 492.633301,304.955383 
	C492.920868,306.127197 492.841766,307.254395 492.732574,308.809967 
	C491.236176,308.233307 490.105988,307.797791 489.081238,307.402893 
	C486.954041,311.948730 484.862793,316.417847 482.428650,320.956665 
z"/>
<path fill="#FAFDF8" opacity="1.000000" stroke="none" 
	d="
M31.631546,192.838715 
	C30.513353,197.917633 29.065018,202.851364 27.377224,208.093079 
	C26.496546,207.305359 25.771084,206.249191 25.234201,205.104538 
	C24.462322,203.458908 23.284731,201.720779 23.369701,200.078491 
	C23.410557,199.288818 25.945097,198.628143 27.608795,197.776810 
	C26.858501,196.819382 25.922007,195.624344 24.139940,193.350296 
	C27.137562,193.075394 29.219484,192.884460 31.631546,192.838715 
z"/>
<path fill="#FAFDF8" opacity="1.000000" stroke="none" 
	d="
M491.072571,192.798126 
	C489.927673,189.158112 488.873138,185.888809 487.600067,181.942123 
	C493.977661,183.914795 496.050720,189.349350 493.978485,197.455841 
	C492.781464,195.633240 491.972198,194.401047 491.072571,192.798126 
z"/>
<path fill="#FAFDF8" opacity="1.000000" stroke="none" 
	d="
M37.032646,336.315857 
	C38.746498,338.668854 40.431320,341.403961 42.175049,344.483063 
	C40.118767,344.827026 38.003578,344.827026 35.554974,344.827026 
	C35.242592,345.448395 34.714523,346.498779 34.186459,347.549133 
	C33.646217,347.352051 33.105980,347.154938 32.565739,346.957825 
	C33.431053,344.630035 34.238743,342.278412 35.185959,339.984436 
	C35.660679,338.834778 36.389641,337.790131 37.032646,336.315857 
z"/>
<path fill="#FAFDF8" opacity="1.000000" stroke="none" 
	d="
M428.274658,369.311768 
	C434.438202,366.744995 440.858917,364.455292 447.642212,362.203064 
	C446.620850,363.494873 445.435211,365.213013 443.811707,365.907013 
	C440.422424,367.355957 436.833191,368.380707 433.261414,369.338501 
	C431.769775,369.738525 430.113373,369.523987 428.274658,369.311768 
z"/>
<path fill="#FAFDF8" opacity="1.000000" stroke="none" 
	d="
M362.175934,462.873413 
	C364.017761,459.013367 366.224030,455.178436 368.727295,451.178253 
	C369.285187,451.715210 369.958801,452.850983 369.744995,453.054596 
	C366.500397,456.143494 366.825439,459.521484 369.366608,462.898468 
	C366.634918,462.898468 364.587646,462.898468 362.175934,462.873413 
z"/>
<path fill="#FAFDF8" opacity="1.000000" stroke="none" 
	d="
M319.224579,485.252930 
	C324.743073,483.002289 330.486420,481.010315 336.616089,479.039856 
	C336.538910,479.995300 336.247681,481.585449 335.584747,481.759430 
	C330.245850,483.160828 324.836975,484.295441 319.224579,485.252930 
z"/>
<path fill="#FAFDF8" opacity="1.000000" stroke="none" 
	d="
M473.223633,170.807831 
	C471.644379,169.246353 470.346649,167.464874 469.032043,165.342621 
	C470.962280,164.746628 472.909424,164.491440 476.199677,164.060226 
	C476.036682,164.987747 475.951996,166.550110 475.448578,167.963318 
	C475.099091,168.944412 474.173431,169.720291 473.223633,170.807831 
z"/>
<path fill="#FAFDF8" opacity="1.000000" stroke="none" 
	d="
M493.396179,304.909912 
	C493.000000,300.232147 493.000000,295.464294 493.000000,290.696442 
	C493.527832,290.697815 494.055695,290.699188 494.583527,290.700562 
	C494.806915,295.402374 496.180908,300.093231 493.396179,304.909912 
z"/>
<path fill="#FAFDF8" opacity="1.000000" stroke="none" 
	d="
M326.056458,487.000031 
	C328.088287,487.000000 329.693024,487.000000 331.752686,487.000000 
	C328.663391,490.696991 325.413818,490.969452 320.330353,487.630402 
	C322.779510,487.339050 324.204437,487.169556 326.056458,487.000031 
z"/>
<path fill="#FAFDF8" opacity="1.000000" stroke="none" 
	d="
M322.654785,22.875423 
	C322.276245,23.737236 321.914398,24.603138 321.439850,24.670097 
	C319.947479,24.880674 318.398285,24.905243 316.907074,24.716976 
	C316.623383,24.681162 316.231201,22.751724 316.350525,22.696712 
	C317.744446,22.054024 319.199249,21.429239 320.699982,21.191551 
	C321.256195,21.103458 321.975128,22.043022 322.654785,22.875423 
z"/>
<path fill="#FAFDF8" opacity="1.000000" stroke="none" 
	d="
M295.283020,489.312317 
	C298.078247,488.402588 301.139191,487.772186 304.610168,487.233643 
	C304.908844,489.621307 304.456726,491.276581 301.420105,490.351166 
	C299.558685,489.783875 297.512115,489.824127 295.283020,489.312317 
z"/>
<path fill="#FAFDF8" opacity="1.000000" stroke="none" 
	d="
M477.388489,331.990967 
	C478.144348,329.460388 479.278656,326.921936 480.687256,324.184082 
	C482.400238,327.650726 480.456451,329.965851 477.388489,331.990967 
z"/>
<path fill="#FAFDF8" opacity="1.000000" stroke="none" 
	d="
M298.469543,494.983490 
	C297.912109,494.351562 297.757538,493.731537 297.602997,493.111542 
	C299.847412,493.111542 302.091797,493.111542 304.336212,493.111542 
	C304.379120,493.567078 304.422028,494.022583 304.464935,494.478119 
	C302.600769,494.650543 300.736572,494.822998 298.469543,494.983490 
z"/>
<path fill="#FAFDF8" opacity="1.000000" stroke="none" 
	d="
M157.309601,465.132477 
	C155.998093,463.258270 154.995575,461.516541 153.982361,459.426331 
	C155.998657,461.111847 158.025650,463.145905 160.121460,465.503387 
	C159.333054,465.639526 158.475830,465.452240 157.309601,465.132477 
z"/>
<path fill="#FAFDF8" opacity="1.000000" stroke="none" 
	d="
M24.825615,329.116577 
	C24.456715,327.729187 24.343750,326.605133 24.230783,325.481079 
	C24.664600,325.342896 25.098415,325.204712 25.532232,325.066528 
	C26.291071,326.283173 27.049911,327.499847 27.808750,328.716492 
	C26.899683,328.937622 25.990618,329.158783 24.825615,329.116577 
z"/>
<path fill="#FAFDF8" opacity="1.000000" stroke="none" 
	d="
M310.223816,487.252441 
	C311.758209,486.368286 313.524719,485.760956 315.649109,485.240601 
	C315.176544,488.632935 312.900269,488.292969 310.223816,487.252441 
z"/>
<path fill="#FAFDF8" opacity="1.000000" stroke="none" 
	d="
M494.972961,211.270966 
	C494.856873,212.562775 494.724213,213.490448 494.591583,214.418121 
	C494.210449,214.429108 493.829285,214.440094 493.448151,214.451080 
	C493.448151,212.926544 493.448151,211.402023 493.448151,209.877487 
	C493.950897,210.220596 494.453674,210.563705 494.972961,211.270966 
z"/>
<path fill="#FAFDF8" opacity="1.000000" stroke="none" 
	d="
M42.127937,345.195984 
	C43.134819,345.932953 44.086464,347.081940 45.115669,348.545288 
	C42.535244,349.328339 41.766384,347.984070 42.127937,345.195984 
z"/>
<path fill="#FAFDF8" opacity="1.000000" stroke="none" 
	d="
M34.611698,186.036957 
	C34.507591,187.210526 34.059055,188.422318 33.352051,189.831406 
	C33.484810,188.710861 33.876038,187.393036 34.611698,186.036957 
z"/>
<path fill="#FAFDF8" opacity="1.000000" stroke="none" 
	d="
M379.148773,445.320892 
	C379.787811,445.294861 380.489899,445.487152 380.848145,445.947174 
	C380.991913,446.131897 380.380096,446.904907 380.112213,447.410187 
	C379.766083,446.822357 379.419952,446.234528 379.148773,445.320892 
z"/>
<path fill="#FAFDF8" opacity="1.000000" stroke="none" 
	d="
M480.534485,341.257568 
	C479.844177,340.666779 479.374695,339.840729 478.905212,339.014679 
	C479.368103,338.839783 479.831024,338.664917 480.293915,338.490021 
	C480.447693,339.334137 480.601471,340.178223 480.534485,341.257568 
z"/>
<path fill="#FAFDF8" opacity="1.000000" stroke="none" 
	d="
M458.367249,365.148132 
	C459.277466,365.412506 459.863251,365.753998 460.449036,366.095520 
	C459.948730,366.366669 459.448456,366.637848 458.948151,366.909027 
	C458.646362,366.347778 458.344574,365.786530 458.367249,365.148132 
z"/>
<path fill="#FAFDF8" opacity="1.000000" stroke="none" 
	d="
M448.768738,131.727386 
	C447.703857,131.894531 446.407654,131.789062 445.055725,131.342102 
	C446.179138,131.151993 447.358307,131.303391 448.768738,131.727386 
z"/>
<path fill="#FAFDF8" opacity="1.000000" stroke="none" 
	d="
M85.833847,144.834015 
	C84.925903,145.419479 83.812790,145.723969 82.349854,145.962860 
	C83.209572,145.449203 84.419128,145.001129 85.833847,144.834015 
z"/>
<path fill="#FAFDF8" opacity="1.000000" stroke="none" 
	d="
M193.525696,491.975159 
	C194.480469,491.503387 195.431503,491.361328 196.382553,491.219299 
	C196.394623,491.684021 196.406693,492.148743 196.418762,492.613464 
	C195.453156,492.510620 194.487564,492.407776 193.525696,491.975159 
z"/>
<path fill="#FAFDF8" opacity="1.000000" stroke="none" 
	d="
M333.798523,493.426636 
	C334.859558,493.322998 335.678986,493.432404 336.498444,493.541779 
	C336.402466,493.961365 336.306519,494.380951 336.210571,494.800537 
	C335.326050,494.413574 334.441498,494.026581 333.798523,493.426636 
z"/>
<path fill="#FAFDF8" opacity="1.000000" stroke="none" 
	d="
M380.507233,435.334503 
	C379.963409,434.989716 379.637268,434.429626 379.311127,433.869537 
	C379.590027,433.741974 379.868896,433.614380 380.147827,433.486816 
	C380.340179,434.030945 380.532532,434.575073 380.507233,435.334503 
z"/>
<path fill="#FAFDF8" opacity="1.000000" stroke="none" 
	d="
M195.798294,21.794823 
	C195.195999,21.430983 194.893143,21.004431 194.590286,20.577877 
	C195.037766,20.462973 195.485245,20.348070 195.932724,20.233170 
	C195.987732,20.732815 196.042740,21.232462 195.798294,21.794823 
z"/>
<path fill="#FAFDF8" opacity="1.000000" stroke="none" 
	d="
M148.630035,55.987122 
	C148.490829,56.901455 148.033829,57.819748 147.314362,58.906319 
	C147.472015,58.046757 147.892136,57.018917 148.630035,55.987122 
z"/>
<path fill="#FAFDF8" opacity="1.000000" stroke="none" 
	d="
M135.606796,79.045547 
	C135.209778,79.287788 134.814789,79.286087 134.422012,79.255806 
	C134.410980,79.254959 134.423462,78.948792 134.424988,78.784988 
	C134.819702,78.789192 135.214432,78.793396 135.606796,79.045547 
z"/>
<path fill="#FAFDF8" opacity="1.000000" stroke="none" 
	d="
M154.391663,34.466278 
	C153.941513,34.350124 153.665558,34.066643 153.410904,33.765171 
	C153.404404,33.757477 153.631790,33.552204 153.750107,33.439079 
	C154.022949,33.724918 154.295807,34.010757 154.391663,34.466278 
z"/>
<path fill="#FAFDF8" opacity="1.000000" stroke="none" 
	d="
M475.547852,334.935547 
	C475.585236,334.315826 475.940308,333.629913 476.584167,332.811768 
	C476.537140,333.409485 476.201324,334.139404 475.547852,334.935547 
z"/>
<path fill="#FAFDF8" opacity="1.000000" stroke="none" 
	d="
M369.673401,448.955627 
	C369.493622,448.456116 369.559845,447.904755 369.878326,447.205261 
	C370.060211,447.672668 369.989838,448.288239 369.673401,448.955627 
z"/>
<path fill="#FAFDF8" opacity="1.000000" stroke="none" 
	d="
M91.736633,144.482544 
	C91.215988,144.762421 90.486519,144.852814 89.392120,144.877319 
	C89.860725,144.638641 90.694267,144.465866 91.736633,144.482544 
z"/>
<path fill="#FAFDF8" opacity="1.000000" stroke="none" 
	d="
M146.810303,59.185928 
	C146.907623,59.600552 146.738113,60.173683 146.315155,60.914993 
	C146.222290,60.503593 146.382874,59.924019 146.810303,59.185928 
z"/>
<path fill="#FAFDF8" opacity="1.000000" stroke="none" 
	d="
M149.574860,55.136963 
	C149.828415,55.371544 149.720322,55.635574 149.204483,55.877792 
	C149.050903,55.659313 149.189713,55.429462 149.574860,55.136963 
z"/>
<path fill="#FAFDF8" opacity="1.000000" stroke="none" 
	d="
M153.551117,42.466980 
	C153.584854,42.523247 153.517380,42.410717 153.551117,42.466980 
z"/>
<path fill="#F7FCFC" opacity="1.000000" stroke="none" 
	d="
M199.142532,60.650612 
	C210.676773,65.470177 215.728561,76.340118 211.760605,87.171082 
	C208.014786,97.395699 196.565552,102.821388 186.090103,99.336075 
	C175.645844,95.861137 169.984161,84.940544 173.019058,74.123825 
	C176.012222,63.455772 186.363434,57.983242 199.142532,60.650612 
z"/>
<path fill="#FAFDF8" opacity="1.000000" stroke="none" 
	d="
M369.227173,73.411835 
	C372.964783,73.905273 376.691620,74.815063 382.030121,76.118294 
	C380.239655,77.451332 379.294830,78.629898 378.122253,78.936035 
	C374.979370,79.756592 373.493835,81.145691 374.637024,84.618370 
	C375.137451,86.138466 374.986481,87.900932 374.987396,89.553413 
	C375.004517,120.491081 375.052521,151.429001 374.904816,182.365967 
	C374.892334,184.976532 373.473480,187.565094 372.839691,190.195602 
	C372.591522,191.225616 372.890167,192.391495 372.621399,193.411621 
	C371.785706,196.583481 370.797485,199.715164 369.525726,202.932220 
	C369.499847,165.237091 369.857452,127.472420 370.086792,89.706970 
	C370.118927,84.416000 369.522064,79.121208 369.227173,73.411835 
z"/>
<path fill="#FAFDF8" opacity="1.000000" stroke="none" 
	d="
M309.524139,250.064545 
	C309.425323,251.309448 308.863770,252.480560 308.535461,253.165192 
	C304.822296,252.752869 301.433075,252.057953 298.042145,252.049438 
	C265.287018,251.967041 232.531418,251.958450 199.776627,252.092041 
	C197.555893,252.101074 195.384903,253.737854 193.111450,254.063232 
	C190.285233,254.467712 185.921722,255.512009 184.776215,254.142960 
	C181.350418,250.048584 179.499771,253.180786 176.927719,254.558792 
	C175.070786,255.553665 173.032074,256.404480 170.975586,256.784149 
	C168.180984,257.300079 165.292038,257.305084 162.218292,257.256927 
	C171.718277,251.573181 182.345551,250.079681 193.234406,250.057831 
	C231.843292,249.980377 270.452393,250.004883 309.524139,250.064545 
z"/>
<path fill="#FAFDF8" opacity="1.000000" stroke="none" 
	d="
M159.628479,257.973877 
	C162.037689,262.934814 160.538513,265.033569 153.797989,264.399475 
	C151.453079,267.834137 154.210678,273.553345 148.316818,276.577301 
	C148.467926,273.977783 148.563828,272.327942 148.686737,270.213379 
	C142.228592,273.329559 143.975418,280.053314 140.898056,284.759827 
	C140.084457,284.442596 138.962997,284.005310 137.638077,283.488678 
	C136.151855,287.962067 132.712204,292.910126 133.663666,296.777985 
	C134.940201,301.967285 132.373962,304.322876 130.299316,307.624573 
	C129.804718,308.411713 129.825150,309.522522 129.351105,310.731140 
	C130.699310,288.501526 139.166428,269.934784 159.628479,257.973877 
z"/>
<path fill="#FAFDF8" opacity="1.000000" stroke="none" 
	d="
M128.447601,371.856995 
	C128.075378,376.697906 124.654556,378.046387 120.530701,376.590576 
	C111.886284,373.538971 103.019485,373.871033 94.144691,374.094543 
	C92.662712,374.131897 91.236450,375.465790 89.739143,376.092255 
	C88.478600,376.619629 87.169388,377.294189 85.851479,377.368713 
	C82.650200,377.549683 79.360306,376.997437 76.237762,377.522919 
	C72.468338,378.157227 71.562469,377.072327 72.620201,373.613586 
	C72.904861,372.682770 72.901901,371.664032 73.056404,370.275970 
	C91.246498,374.272797 109.686401,371.652618 128.447601,371.856995 
z"/>
<path fill="#FAFDF8" opacity="1.000000" stroke="none" 
	d="
M365.640198,215.003052 
	C366.994080,218.934219 369.116486,223.345047 362.709137,225.343414 
	C361.890869,225.598633 361.578369,227.221054 360.840088,228.036819 
	C358.955872,230.118912 357.125793,232.298935 354.976349,234.080597 
	C351.729645,236.771729 348.057465,238.966232 344.934021,241.780121 
	C343.880432,242.729248 343.945892,244.920532 343.286499,247.321228 
	C341.483826,248.160980 338.801483,249.410507 336.119110,250.660049 
	C336.067627,250.192383 336.016113,249.724701 335.964630,249.257034 
	C333.080017,249.420670 330.195038,249.577774 327.310944,249.749420 
	C322.729523,250.022079 318.148712,250.304520 313.280273,250.287537 
	C321.383514,247.627213 330.088409,246.024216 338.092712,242.722595 
	C350.809906,237.476990 359.997070,228.086578 365.640198,215.003052 
z"/>
<path fill="#FAFDF8" opacity="1.000000" stroke="none" 
	d="
M343.917908,41.528156 
	C346.547424,40.974110 349.357819,40.704346 353.015839,40.353222 
	C353.015839,41.989323 353.015839,44.493057 353.019196,47.430443 
	C350.047974,45.846874 347.073395,43.829655 343.917908,41.528156 
z"/>
<path fill="#FAFDF8" opacity="1.000000" stroke="none" 
	d="
M368.692169,205.241348 
	C368.826813,206.277664 368.733978,207.581223 368.291412,208.931946 
	C368.115997,207.822266 368.290344,206.665421 368.692169,205.241348 
z"/>
<path fill="#FAFDF8" opacity="1.000000" stroke="none" 
	d="
M366.740234,212.175659 
	C367.494324,212.271210 368.027985,212.553024 368.561646,212.834808 
	C367.975128,213.220779 367.388611,213.606735 366.476044,213.998215 
	C366.273285,213.456467 366.396545,212.909180 366.740234,212.175659 
z"/>
<path fill="#FAFDF8" opacity="1.000000" stroke="none" 
	d="
M128.844818,321.364380 
	C129.134842,321.879059 129.308304,322.760834 129.224594,323.822998 
	C128.887695,323.246094 128.807968,322.488770 128.844818,321.364380 
z"/>
<path fill="#FAFDF8" opacity="1.000000" stroke="none" 
	d="
M128.860626,314.327881 
	C129.126663,314.574249 129.277939,315.147095 129.195877,315.860870 
	C128.890320,315.552643 128.818100,315.103485 128.860626,314.327881 
z"/>
<path fill="#FAFDF8" opacity="1.000000" stroke="none" 
	d="
M128.818665,370.017303 
	C128.961533,370.095032 128.972641,370.297668 128.970856,370.804688 
	C128.867599,370.786774 128.777267,370.464508 128.818665,370.017303 
z"/>
<path fill="#FEFEF6" opacity="1.000000" stroke="none" 
	d="
M321.079773,413.205994 
	C330.045166,413.669495 336.325104,417.726318 340.036438,425.397095 
	C343.943359,433.472137 341.993591,440.971344 336.987976,447.870178 
	C332.115265,454.585785 319.548645,456.350708 311.522034,452.009460 
	C301.777863,446.739288 299.975983,437.700592 301.223633,430.255035 
	C302.826630,420.689178 309.672424,414.951111 321.079773,413.205994 
z"/>
<path fill="#FAFDF8" opacity="1.000000" stroke="none" 
	d="
M165.332214,276.901184 
	C168.154205,274.254761 171.384506,271.652802 174.489151,268.908752 
	C175.999374,267.573914 177.274796,265.973450 178.167831,265.016754 
	C182.165588,265.016754 185.784027,265.016754 189.402451,265.016754 
	C189.435455,264.582550 189.468460,264.148346 189.501465,263.714142 
	C185.545807,262.590790 181.590149,261.467407 177.634491,260.344025 
	C177.596375,260.052979 177.558258,259.761932 177.520126,259.470886 
	C179.262894,259.353394 181.109009,258.811035 182.727417,259.204712 
	C186.360428,260.088501 189.873413,261.459320 193.451767,262.579102 
	C194.225586,262.821259 195.126526,263.094818 195.871689,262.925659 
	C207.831696,260.210754 219.913574,262.275146 231.921829,262.115845 
	C259.682312,261.747498 287.450989,261.988068 315.216309,262.023682 
	C317.005493,262.025970 318.794220,262.385895 320.858154,262.927856 
	C319.189850,263.514587 317.246826,263.958008 315.303253,263.960571 
	C282.677277,264.003357 250.050766,264.087463 217.425308,263.948975 
	C201.972046,263.883392 186.887634,265.243073 172.983856,272.760681 
	C170.526764,274.089172 168.119232,275.509338 165.332214,276.901184 
z"/>
<path fill="#FAFDF8" opacity="1.000000" stroke="none" 
	d="
M148.905975,451.632446 
	C148.348831,451.723724 147.407120,451.587494 147.240646,451.153748 
	C144.733154,444.620880 138.943054,438.964966 141.897644,430.927856 
	C142.384201,429.604401 141.996643,427.956055 141.996735,426.457855 
	C141.998627,394.992340 142.033966,363.526733 141.956146,332.061401 
	C141.945541,327.775146 141.263855,323.494568 141.086517,319.203339 
	C140.960327,316.149750 140.068954,312.672852 144.451019,311.051117 
	C144.503708,349.716248 144.238922,388.435791 143.869431,427.154327 
	C143.788879,435.595215 145.201157,443.646667 148.905975,451.632446 
z"/>
<path fill="#FAFDF8" opacity="1.000000" stroke="none" 
	d="
M324.215515,263.448669 
	C328.252533,259.322693 333.014435,258.098419 338.871582,259.792297 
	C341.825439,260.646545 344.941864,259.491669 344.730133,254.450485 
	C351.582672,259.163025 354.810699,250.828583 360.797852,251.058823 
	C353.955505,258.831787 344.254883,261.127136 334.410736,262.943909 
	C331.184570,263.539337 327.830536,263.442047 324.215515,263.448669 
z"/>
<path fill="#FAFDF8" opacity="1.000000" stroke="none" 
	d="
M145.245544,308.741333 
	C144.394714,304.546997 144.251984,300.542297 147.434402,296.453461 
	C150.122482,292.999817 151.185577,288.281342 153.073730,283.875671 
	C154.178040,283.136780 156.015869,281.794373 157.964050,280.637848 
	C159.634232,279.646393 161.430725,278.867767 163.533661,277.979675 
	C156.213943,285.632416 149.779495,294.105896 146.633682,304.702515 
	C146.258636,305.965912 145.884064,307.229401 145.245544,308.741333 
z"/>
<path fill="#FAFDF8" opacity="1.000000" stroke="none" 
	d="
M381.129456,221.707611 
	C377.769714,217.783035 377.460754,222.946045 374.594482,224.402893 
	C375.718536,220.390121 376.512634,217.555328 377.306702,214.720551 
	C377.709625,214.371826 378.112549,214.023102 378.515472,213.674377 
	C378.832184,214.906555 379.148865,216.138733 379.465576,217.370911 
	C380.137115,217.119156 380.808655,216.867401 381.480194,216.615631 
	C381.480194,214.910934 382.019745,212.959320 381.374725,211.549789 
	C379.723083,207.940552 381.291626,205.858948 384.400757,204.002747 
	C383.641113,209.820145 382.530640,215.651855 381.129456,221.707611 
z"/>
<path fill="#FAFDF8" opacity="1.000000" stroke="none" 
	d="
M363.491180,249.275757 
	C362.146362,248.589645 361.140289,247.771759 360.109985,246.985611 
	C359.155579,246.257370 358.130493,245.610886 357.260864,244.795746 
	C357.147034,244.689102 357.889313,243.305603 358.037018,243.340973 
	C359.209900,243.621735 360.354919,244.056610 361.467621,244.538498 
	C362.210205,244.860077 362.885895,245.336121 364.242279,246.118332 
	C367.272705,242.824570 370.364044,239.464600 373.825378,236.126770 
	C373.056763,242.335724 367.855194,245.281891 363.491180,249.275757 
z"/>
<path fill="#FAFDF8" opacity="1.000000" stroke="none" 
	d="
M376.419983,233.129547 
	C375.693115,229.561737 376.184570,226.164597 380.267761,224.055664 
	C379.291992,226.965591 377.997467,229.939682 376.419983,233.129547 
z"/>
<path fill="#FFFFFF" opacity="1.000000" stroke="none" 
	d="
M384.936707,199.605377 
	C383.616302,199.517502 382.385132,199.035751 381.153931,198.553986 
	C382.149017,197.707748 383.144073,196.861496 384.507751,196.008148 
	C384.926178,197.071182 384.976074,198.141327 384.936707,199.605377 
z"/>
<path fill="#FAFDF8" opacity="1.000000" stroke="none" 
	d="
M150.928925,454.692749 
	C150.336304,454.468506 149.717896,453.923492 149.113281,453.024078 
	C149.719101,453.237122 150.311111,453.804565 150.928925,454.692749 
z"/>
<path fill="#FAFDF8" opacity="1.000000" stroke="none" 
	d="
M374.453339,236.108063 
	C374.533722,235.481873 374.920746,234.787582 375.636444,234.046814 
	C375.563416,234.680222 375.161713,235.360092 374.453339,236.108063 
z"/>
<path fill="#FFFFFF" opacity="1.000000" stroke="none" 
	d="
M356.377441,237.192780 
	C360.084167,236.853897 364.394501,239.577011 366.862885,233.874420 
	C367.212891,234.336517 367.562927,234.798599 367.912964,235.260681 
	C366.705200,236.746918 365.771271,238.999649 364.229340,239.550491 
	C361.507996,240.522705 358.308716,240.846130 356.377441,237.192780 
z"/>
<path fill="#FAFDF8" opacity="1.000000" stroke="none" 
	d="
M434.947449,138.652985 
	C436.649231,135.100052 439.669342,134.990585 444.206146,138.859467 
	C440.685364,138.859467 437.981354,138.859467 434.947449,138.652985 
z"/>
<path fill="#FAFDF8" opacity="1.000000" stroke="none" 
	d="
M369.596069,224.345642 
	C369.222687,222.290604 369.136017,220.424728 369.049347,218.558838 
	C369.739899,218.604660 370.430450,218.650482 371.121033,218.696304 
	C370.708252,220.642471 370.295502,222.588623 369.596069,224.345642 
z"/>
<path fill="#FAFDF8" opacity="1.000000" stroke="none" 
	d="
M459.992371,148.692749 
	C459.347076,147.788620 459.036865,146.884735 458.726654,145.980850 
	C459.569519,145.979904 460.412384,145.978958 461.255249,145.978027 
	C460.945984,146.883011 460.636688,147.787994 459.992371,148.692749 
z"/>
<path fill="#FAFDF8" opacity="1.000000" stroke="none" 
	d="
M134.927002,435.019287 
	C134.417084,435.613434 133.905228,435.882141 133.393402,436.150879 
	C133.389664,435.401642 133.385941,434.652374 133.382217,433.903137 
	C133.896500,434.166718 134.410782,434.430298 134.927002,435.019287 
z"/>
<path fill="#FAFDF8" opacity="1.000000" stroke="none" 
	d="
M145.464874,277.742126 
	C146.155579,278.333282 146.625305,279.159760 147.095032,279.986237 
	C146.631851,280.161224 146.168686,280.336182 145.705505,280.511139 
	C145.551636,279.666595 145.397766,278.822021 145.464874,277.742126 
z"/>
<path fill="#FAFDF8" opacity="1.000000" stroke="none" 
	d="
M147.600723,459.000366 
	C146.934570,459.665588 146.219650,460.007507 145.504715,460.349457 
	C145.421127,459.909882 145.337540,459.470276 145.253952,459.030701 
	C146.019958,458.912842 146.785950,458.794952 147.600723,459.000366 
z"/>
<path fill="#FAFDF8" opacity="1.000000" stroke="none" 
	d="
M384.534607,80.257729 
	C383.844086,79.666840 383.374481,78.840652 382.904877,78.014458 
	C383.367950,77.839523 383.831055,77.664581 384.294128,77.489639 
	C384.447906,78.333908 384.601715,79.178169 384.534607,80.257729 
z"/>
<path fill="#FAFDF8" opacity="1.000000" stroke="none" 
	d="
M373.491821,209.664185 
	C374.036438,210.009506 374.363037,210.570450 374.689667,211.131393 
	C374.410370,211.259201 374.131104,211.386993 373.851807,211.514801 
	C373.659149,210.969803 373.466492,210.424805 373.491821,209.664185 
z"/>
<path fill="#FAFDF8" opacity="1.000000" stroke="none" 
	d="
M155.691956,267.474365 
	C156.448257,267.468536 156.984909,267.673859 157.521545,267.879150 
	C157.386459,268.153809 157.251373,268.428467 157.116302,268.703125 
	C156.568314,268.363922 156.020309,268.024719 155.691956,267.474365 
z"/>
<path fill="#FAFDF8" opacity="1.000000" stroke="none" 
	d="
M327.798218,253.794769 
	C327.195892,253.430923 326.893036,253.004395 326.590179,252.577850 
	C327.037689,252.462967 327.485168,252.348068 327.932678,252.233170 
	C327.987671,252.732803 328.042664,253.232452 327.798218,253.794769 
z"/>
<path fill="#FAFDF8" opacity="1.000000" stroke="none" 
	d="
M171.045563,261.393219 
	C171.287796,261.790161 171.286102,262.185089 171.255798,262.577820 
	C171.254944,262.588898 170.948822,262.576385 170.785034,262.574890 
	C170.789246,262.180237 170.793442,261.785553 171.045563,261.393219 
z"/>
<path fill="#FAFDF8" opacity="1.000000" stroke="none" 
	d="
M141.391541,288.466064 
	C140.941544,288.349976 140.665634,288.066589 140.411041,287.765198 
	C140.404510,287.757507 140.631805,287.552246 140.750046,287.439117 
	C141.022842,287.724884 141.295639,288.010651 141.391541,288.466064 
z"/>
<path fill="#FAFDF8" opacity="1.000000" stroke="none" 
	d="
M371.954529,230.607529 
	C371.712006,230.210052 371.713654,229.814636 371.743927,229.421417 
	C371.744781,229.410370 372.051300,229.422867 372.215271,229.424408 
	C372.211090,229.819565 372.206909,230.214737 371.954529,230.607529 
z"/>
<path fill="#FAFDF8" opacity="1.000000" stroke="none" 
	d="
M366.334717,49.492630 
	C365.989838,50.036579 365.429657,50.362797 364.869507,50.689014 
	C364.741943,50.410053 364.614380,50.131092 364.486816,49.852131 
	C365.031036,49.659725 365.575256,49.467312 366.334717,49.492630 
z"/>
</svg>