<?xml version="1.0" encoding="UTF-8"?>
<svg version="1.1" xmlns="http://www.w3.org/2000/svg" width="150" height="150">
<path d="M0 0 C49.5 0 99 0 150 0 C150 49.5 150 99 150 150 C100.5 150 51 150 0 150 C0 100.5 0 51 0 0 Z " fill="#FDFDFD" transform="translate(0,0)"/>
<path d="M0 0 C2.37570543 -0.0816082 4.74855841 -0.14077222 7.125 -0.1875 C7.79015625 -0.21263672 8.4553125 -0.23777344 9.140625 -0.26367188 C15.36682649 -0.35523366 19.00476324 1.31372175 23.69921875 5.28125 C31.98974235 15.07786192 32.20219938 29.40951752 31.28662109 41.59570312 C30.2921014 49.93814773 27.0204978 56.97618719 20.84375 62.73046875 C16.93065122 65.42486939 13.36368299 66.24994493 8.65893555 66.22705078 C7.09788338 66.22682419 7.09788338 66.22682419 5.5052948 66.22659302 C3.83784966 66.21110916 3.83784966 66.21110916 2.13671875 66.1953125 C0.98959915 66.1924826 -0.15752045 66.18965271 -1.33940125 66.18673706 C-4.99720768 66.17555697 -8.65476778 66.15045595 -12.3125 66.125 C-14.79491833 66.11496741 -17.27734051 66.10584205 -19.75976562 66.09765625 C-25.83992756 66.07562471 -31.91994618 66.04216848 -38 66 C-37.67 67.32 -37.34 68.64 -37 70 C-21.16 70.495 -21.16 70.495 -5 71 C-4.95875 74.0525 -4.9175 77.105 -4.875 80.25 C-4.85679199 81.20551758 -4.83858398 82.16103516 -4.81982422 83.14550781 C-4.8148291 83.90702148 -4.80983398 84.66853516 -4.8046875 85.453125 C-4.79421387 86.22817383 -4.78374023 87.00322266 -4.77294922 87.80175781 C-5.03269664 90.31655969 -5.66800551 91.85951715 -7 94 C-15.59330585 100.91656324 -24.71379611 101.48137565 -35.375 101.375 C-36.53 101.38660156 -37.685 101.39820313 -38.875 101.41015625 C-49.12592241 101.37544658 -60.00162712 100.0762547 -68 93 C-69.66438667 90.18332027 -70.25779514 88.07479999 -70.30639648 84.81738281 C-70.32238388 84.00263489 -70.33837128 83.18788696 -70.35484314 82.34844971 C-70.36020584 81.47549255 -70.36556854 80.6025354 -70.37109375 79.703125 C-70.38012222 78.79552429 -70.3891507 77.88792358 -70.39845276 76.95281982 C-70.4129479 75.03303317 -70.42184017 73.11319719 -70.42553711 71.19335938 C-70.43740295 68.27387848 -70.48656868 65.3565331 -70.53710938 62.4375 C-70.54657792 60.56771859 -70.55381089 58.69792426 -70.55859375 56.828125 C-70.57812607 55.96326477 -70.59765839 55.09840454 -70.61778259 54.20733643 C-70.57233767 48.02095365 -69.03735536 43.74899535 -65 39 C-58.42388782 34.56827222 -50.65715277 34.85914657 -42.99609375 34.7890625 C-41.26887043 34.76101252 -39.54165699 34.73234821 -37.81445312 34.703125 C-35.11987394 34.66181746 -32.42548338 34.62488294 -29.73071289 34.59863281 C-27.11046469 34.57096337 -24.49102712 34.52512251 -21.87109375 34.4765625 C-21.07094345 34.47330963 -20.27079315 34.47005676 -19.44639587 34.46670532 C-14.57936266 34.36030052 -11.23284738 33.64927576 -7 31 C-2.71983972 26.48205304 -0.81404668 22.1149347 -0.5859375 15.91796875 C-0.54726562 14.98662109 -0.50859375 14.05527344 -0.46875 13.09570312 C-0.4378125 12.13599609 -0.406875 11.17628906 -0.375 10.1875 C-0.33632812 9.20845703 -0.29765625 8.22941406 -0.2578125 7.22070312 C-0.16389184 4.81398626 -0.07821799 2.40726988 0 0 Z " fill="#FEEF57" transform="translate(113,42)"/>
<path d="M0 0 C4.09501708 3.98947541 4.87062327 7.61107806 4.95811462 13.11459351 C4.95517899 13.96365265 4.95224335 14.81271179 4.94921875 15.6875 C4.9544606 16.57386139 4.95970245 17.46022278 4.96510315 18.3734436 C4.97151242 20.24439448 4.97020054 22.11538572 4.96166992 23.98632812 C4.95317328 26.83537334 4.98191408 29.68240333 5.01367188 32.53125 C5.01528451 34.35416607 5.01470517 36.17708566 5.01171875 38 C5.02295273 38.84501068 5.03418671 39.69002136 5.04576111 40.56063843 C4.97823823 46.34904853 3.86385279 49.7228917 0.515625 54.4765625 C-5.97702512 59.7259392 -11.90741705 59.60775154 -19.87890625 59.6171875 C-21.74024662 59.63551513 -23.60157508 59.6550854 -25.46289062 59.67578125 C-28.37919281 59.70471623 -31.29472664 59.72656214 -34.21118164 59.72705078 C-37.03860635 59.73040109 -39.86428662 59.76503676 -42.69140625 59.8046875 C-43.55312943 59.7976178 -44.4148526 59.7905481 -45.3026886 59.78326416 C-51.53364567 59.90737544 -55.6161451 61.5767622 -60.484375 65.4765625 C-63.96793169 69.29723758 -64.60487311 72.7351565 -64.80078125 77.80078125 C-64.84267578 78.82880859 -64.88457031 79.85683594 -64.92773438 80.91601562 C-64.96705078 81.98787109 -65.00636719 83.05972656 -65.046875 84.1640625 C-65.09005859 85.24751953 -65.13324219 86.33097656 -65.17773438 87.44726562 C-65.28384338 90.12357041 -65.38589861 92.79996776 -65.484375 95.4765625 C-67.86008043 95.5581707 -70.23293341 95.61733472 -72.609375 95.6640625 C-73.27453125 95.68919922 -73.9396875 95.71433594 -74.625 95.74023438 C-80.19571288 95.82215662 -84.0151484 94.55307986 -88.27734375 90.96875 C-96.9431326 80.91934781 -97.00331458 68.19058224 -96.484375 55.4765625 C-95.70365038 46.07440746 -93.5962486 38.87582744 -86.359375 32.5390625 C-82.49737489 29.7684972 -79.90749053 29.35204204 -75.27856445 29.36303711 C-74.21769119 29.36311264 -73.15681793 29.36318817 -72.063797 29.36326599 C-70.91997055 29.36842728 -69.7761441 29.37358856 -68.59765625 29.37890625 C-66.83943794 29.38102867 -66.83943794 29.38102867 -65.04570007 29.38319397 C-61.29606593 29.38879862 -57.54649115 29.40135194 -53.796875 29.4140625 C-51.25716232 29.4190769 -48.7174487 29.42363991 -46.17773438 29.42773438 C-39.94659427 29.43876956 -33.71548888 29.45551225 -27.484375 29.4765625 C-27.484375 27.8265625 -27.484375 26.1765625 -27.484375 24.4765625 C-38.704375 24.4765625 -49.924375 24.4765625 -61.484375 24.4765625 C-61.484375 4.52534299 -61.484375 4.52534299 -56.921875 -0.1484375 C-43.20204269 -10.78967329 -14.03873614 -9.29591988 0 0 Z " fill="#02599D" transform="translate(103.484375,13.5234375)"/>
<path d="M0 0 C1.875 1.75 1.875 1.75 3 4 C2.92196617 7.19938696 2.43745759 8.53129544 0.25 10.875 C-2 12 -2 12 -4.5625 11.875 C-8.52941176 10.45098039 -8.52941176 10.45098039 -10 8 C-9.9375 4.4375 -9.9375 4.4375 -9 1 C-6.05069064 -1.52797945 -3.55255918 -1.27527765 0 0 Z " fill="#E5F0F5" transform="translate(60,18)"/>
<path d="M0 0 C1.8125 1.125 1.8125 1.125 3 3 C3.42478586 7.07794425 3.31282587 8.53076119 1 12 C-2.42201828 12.37331109 -4.90185629 12.63763183 -7.9375 10.875 C-9.52225401 8.07837528 -9.45947423 6.1506804 -9 3 C-6.30254095 0.00282328 -3.95012118 -0.60771095 0 0 Z " fill="#FEFDF0" transform="translate(97,121)"/>
<path d="M0 0 C5.75 4.75 5.75 4.75 8 7 C5.36 7 2.72 7 0 7 C0 4.69 0 2.38 0 0 Z " fill="#000000" transform="translate(0,143)"/>
<path d="M0 0 C0.33 0 0.66 0 1 0 C1 2.64 1 5.28 1 8 C-1.31 8 -3.62 8 -6 8 C-4.73046875 6.50260417 -3.4609375 5.00520833 -2.19140625 3.5078125 C-0.9121848 1.99405921 -0.9121848 1.99405921 0 0 Z " fill="#000000" transform="translate(149,142)"/>
<path d="M0 0 C2.64 0 5.28 0 8 0 C8 2.31 8 4.62 8 7 C2.25 2.25 2.25 2.25 0 0 Z " fill="#000000" transform="translate(142,0)"/>
<path d="M0 0 C2.31 0 4.62 0 7 0 C2.25 5.75 2.25 5.75 0 8 C0 5.36 0 2.72 0 0 Z " fill="#000000" transform="translate(0,0)"/>
</svg>
